<?xml version="1.0" encoding="UTF-8" standalone="no"?>
<!-- Created with Inkscape (http://www.inkscape.org/) -->

<svg
   width="65.44873mm"
   height="23.036379mm"
   viewBox="0 0 65.44873 23.036379"
   version="1.1"
   id="svg1117"
   inkscape:version="1.1.2 (0a00cf5339, 2022-02-04)"
   sodipodi:docname="home_highlight.svg"
   xmlns:inkscape="http://www.inkscape.org/namespaces/inkscape"
   xmlns:sodipodi="http://sodipodi.sourceforge.net/DTD/sodipodi-0.dtd"
   xmlns="http://www.w3.org/2000/svg"
   xmlns:svg="http://www.w3.org/2000/svg">
  <sodipodi:namedview
     id="namedview1119"
     pagecolor="#ffffff"
     bordercolor="#666666"
     borderopacity="1.0"
     inkscape:pageshadow="2"
     inkscape:pageopacity="0.0"
     inkscape:pagecheckerboard="0"
     inkscape:document-units="mm"
     showgrid="false"
     inkscape:zoom="0.77058782"
     inkscape:cx="-215.41996"
     inkscape:cy="-49.313004"
     inkscape:window-width="953"
     inkscape:window-height="1167"
     inkscape:window-x="0"
     inkscape:window-y="0"
     inkscape:window-maximized="1"
     inkscape:current-layer="layer1" />
  <defs
     id="defs1114" />
  <g
     inkscape:label="Layer 1"
     inkscape:groupmode="layer"
     id="layer1"
     transform="translate(-161.95655,-161.53152)">
    <g
       id="g804"
       transform="matrix(0.26458333,0,0,0.26458333,333.19979,-197.95546)">
      <path
         fill="none"
         stroke="#ffed75"
         stroke-width="30"
         stroke-linecap="butt"
         stroke-linejoin="bevel"
         opacity="0.500008"
         d="m -429.131,1413.54 -3.844,0.02 -0.415,0.37 -0.891,-0.07 -0.914,0.62 -0.962,-0.03 -2.228,1.21 -2.711,0.51 -8.832,-0.33 -3.165,-0.79 -1.749,-0.08 -1.27,-0.68 -1.313,-0.18 -5.122,0.02 -1.539,0.56 -8.282,-0.13 -1.3,-0.38 -6.731,0.1 -4.14,-0.27 -0.748,-0.33 -3.132,0.04 -2.359,0.82 -3.196,-0.12 -1.454,0.31 -0.698,0.48 -1.768,0.25 -0.711,0.5 -2.184,0.01 -2.169,1.01 -1.824,0.12 -3.33,1.37 -0.884,-0.09 -1.142,0.43 -4.681,0.11 -2.355,0.8 -11.02,0.18 -0.848,0.38 -2.733,0.05 -1.012,0.54 -3.578,-0.13 -0.587,0.39 -1.378,-0.06 -2.196,0.98 -5.238,-0.03 -1.436,0.54 -2.715,0.19 -12.44,-0.02 -2.108,-0.84 -2.972,-0.01 -2.136,-0.61 -7.573,-0.09 -2.606,1.09 -1.831,0.2 -1.241,0.81 -2.959,1.05 -6.348,3.15 -3.59,0.31 -5.578,2.84 -7.245,0.13 -3.72,-2.39 -1.638,-2.54 -0.853,-0.9 -0.878,-0.31 -3.127,-3.18 -0.626,-1.61 h -0.656 l -1.367,-1.89 -0.468,-0.07 -0.399,-0.72 -0.892,-0.53 -1.881,-3.99 0.124,3.25 -0.211,0.39 0.024,-7.78 0.547,-1.22 -0.1,-1.19 0.702,-1.07 -0.142,-1.58 0.682,-2.5 0.202,-2.68 2.02,-5.43 0.332,-2.05 2.417,-4.16 1.581,-0.78 2.39,-2.41 2.336,-0.75 11.688,-0.07 4.381,-1.93 1.821,0.13 1.617,-0.17 0.658,-0.37 2.947,-0.09 2.311,-0.92 0.856,0.09 1.468,-0.45 3.794,0.04 4.027,-0.76 6.67,0.06 3.474,-0.94 3.634,-1.73 1.266,0.34 5.081,-0.06 3.859,0.31 3.992,-0.21 0.811,0.55 1.711,0.1 -0.27,0.67 2.385,-0.2 6.373,2.29 0.569,-0.06 5.135,2.19 1.863,-0.15 2.132,0.66 1.704,-0.12 0.869,0.37 2.647,-0.69 2.597,0.45 1.445,-0.09 0.823,-0.39 2.755,0.12 4.274,1.22 0.771,-0.09 0.918,0.46 2.381,-0.1 1.893,-0.51 4.882,-0.08 15.453,0.47 1.261,0.56 6.073,-0.12 0.887,-0.37 3.59,-0.04 3.753,-0.62 4.352,0.03 0.567,0.36 5.105,0.34 1.695,0.47 8.426,-0.04 1.745,0.52 1.45,-0.11 1.45,-0.7 h 1.738 l 0.577,-0.33 6.011,0.06 3.929,-0.46 3.032,1.41 1.816,0.03 1.469,0.53 0.871,-0.12 2.288,1.46 1.866,3.21 0.359,2.5 -0.045,8.64 -0.68,1.82 -0.172,2.45 -0.636,1.21 -1.132,0.45 -1.447,1.59 -2.172,0.91 -4.851,-0.46 -6.094,0.03 -1.48,-0.86 -8.937,0.3 -3.584,-1.29 -1.513,0.21 -4.389,-0.18 -8.897,-3.1 -7.029,0.47 -3.148,0.78 -6.814,-0.12 -2.429,-0.88 -1.841,0.14 -3.115,-0.98 -7.388,0.16 -2.245,-0.15 -1.282,-0.53 -18.555,-0.16 -3.046,1.01 -6.368,-0.03 -6.385,2.11 -0.768,-0.12 -0.244,0.29 -2.728,0.48 -4.096,0.05 -2.784,0.88 -2.109,-0.19 -0.968,0.55 -3.208,0.88 -2.211,0.19 -2.451,0.77 -5.947,-0.43 -3.664,0.03 -0.98,0.34 -4.707,-0.05 -1.597,-0.69 -6.202,0.16 -5.024,-0.36 -4.228,0.04 -1.588,0.69 -4.828,0.02 -1.654,-0.66 -0.602,0.11 -2.118,-1.12 -0.974,-1.06 -0.155,-0.65 -3.208,-1.43 -3.736,-0.12 -1.352,-1.24 -2.69,-4.99 -0.129,-1.49 -0.75,-2.13 -1.1,-1.93 0.149,-0.78 -1.016,-1.76 0.108,-3.19 -0.761,-1.71 0.044,-0.8 -0.797,-1.25 0.063,-1.66 0.011,0.32 2.028,-0.97 1.392,-1.6 0.78,-0.23 0.549,-1.15 0.379,0.09 0.539,-0.53 1.266,-0.33 2.176,-1.18 5.392,-0.26 3.477,0.19 2.008,-0.47 17.541,-0.1 8.527,-0.69 1.096,1.57 3.739,2.58 0.807,-0.23 3.208,0.66 6.526,-0.54 3.049,0.03 1.16,0.36 0.873,-0.26 1.162,-1.8 3.009,1.89 1.744,0.43 3.931,-0.05 1.227,-0.73 1.125,-2.06 1.874,-0.37 2.487,-1.23 0.811,0.14 2.191,2.03 4.284,2.3 7.445,-0.09 0.842,0.37 17.382,-0.51 0.993,-0.57 0.23,-0.97 1.202,-1.62 0.408,0.12 1.599,-0.92 33.877,-0.12 1.501,-0.32 4.652,0.04 2.682,-0.32 28.291,0.32 2.144,0.58 4.178,2.17 2.166,2.48 1.907,3.94 0.132,23.33 -0.707,1.93 0.158,1.58 -0.714,2.28 0.118,1.27 -0.884,1.18 -1.358,2.93 -2.547,1.18 -0.857,-0.25 -1.076,-2.55 -1.013,-0.09 -1.54,-0.83 -4.396,0.32 -13.619,-0.2 -1.129,-0.38 -8.278,0.1 -1.944,-0.34 -3.241,0.06 -0.859,-0.38 -3.149,0.31 -35.534,-0.06 -2.38,0.69 -1.267,-0.1 -2.762,0.97 -2.269,0.38 -3.35,-0.16 -1.176,0.38 -6.773,-0.06 -8.32,2.41 -4.255,-0.15 -0.934,0.57 -1.743,-0.18 -5.065,0.44 -1.755,0.69 -2.388,0.22 -5.342,-0.05 -1.815,-0.72 -3.051,-0.33 -0.927,-0.49 -3.609,0.14 -0.958,-0.38 -2.575,-0.23 -2.012,-0.82 h -2.825 l -2.353,-0.31 -2.075,-0.82 -1.367,0.12 -1.562,-0.46 -2.569,-0.09 -3.927,-1.28 -2.234,-0.17 -0.935,-0.48 -10.49,-0.35 -11.906,0.05 -1.718,0.17 -6.385,2.16 -7.822,-0.08 -4.859,-2.08 -1.185,-0.89 -0.93,-1.33 -0.939,2.82 -2.316,-4.7 0.087,-13.51 0.129,-1.83 0.555,-1.34 -0.142,-1.27 1.179,-2.38 -0.172,-2.01 2.431,-5.04 3.18,-1.81 1.716,-0.6 0.662,0.08 1.881,-0.87 0.58,0.01 1.32,0.77 2.124,-0.07 -0.102,-0.81 -4.192,0.44 -3.737,1.91 -2.107,3.05 -3.862,13.38 -0.573,2.58 0.073,0.9 -0.974,3.38 0.089,1.04 -0.952,2.78 0.081,1.09 -0.607,1.84 0.14,2.69 -0.318,5.14 -0.164,-3.07 0.013,0.93 1.668,3.44 5.128,2.28 14.061,0.14 6.522,-0.32 1.407,-0.77 0.788,-1.67"
         id="path802" />
    </g>
  </g>
</svg>
