<?xml version="1.0" encoding="UTF-8" standalone="no"?>
<!-- Created with Inkscape (http://www.inkscape.org/) -->

<svg
   width="50.303905mm"
   height="16.139584mm"
   viewBox="0 0 50.303905 16.139584"
   version="1.1"
   id="svg249"
   inkscape:version="1.1.2 (0a00cf5339, 2022-02-04)"
   sodipodi:docname="home.svg"
   xmlns:inkscape="http://www.inkscape.org/namespaces/inkscape"
   xmlns:sodipodi="http://sodipodi.sourceforge.net/DTD/sodipodi-0.dtd"
   xmlns="http://www.w3.org/2000/svg"
   xmlns:svg="http://www.w3.org/2000/svg">
  <sodipodi:namedview
     id="namedview251"
     pagecolor="#ffffff"
     bordercolor="#666666"
     borderopacity="1.0"
     inkscape:pageshadow="2"
     inkscape:pageopacity="0.0"
     inkscape:pagecheckerboard="0"
     inkscape:document-units="mm"
     showgrid="false"
     inkscape:zoom="0.77058782"
     inkscape:cx="94.732875"
     inkscape:cy="31.145055"
     inkscape:window-width="953"
     inkscape:window-height="1167"
     inkscape:window-x="0"
     inkscape:window-y="0"
     inkscape:window-maximized="1"
     inkscape:current-layer="layer1" />
  <defs
     id="defs246" />
  <g
     inkscape:label="Layer 1"
     inkscape:groupmode="layer"
     id="layer1"
     transform="translate(-79.913946,-140.25853)">
    <g
       id="g8"
       transform="matrix(0.26458333,0,0,0.26458333,245.3116,-94.426882)">
      <path
         fill="#000000"
         fill-rule="evenodd"
         d="m -454,921.625 -3.5,0.375 -1.5,-1.5 v -1 l 1.5,-1.5 6.5,-1.375 8.5,-0.625 1.5,1.5 -1,1 -0.25,1.25 -11.75,1.875"
         id="path6" />
    </g>
    <g
       id="g12"
       transform="matrix(0.26458333,0,0,0.26458333,245.3116,-94.426882)">
      <path
         fill="#000000"
         fill-rule="evenodd"
         d="m -443,940.25 -18.5,0.75 -1.5,-1.5 -0.375,-1.5 -1.25,-3 -0.5,-2 -0.375,-11 3,-20 1.5,-5.5 1.5,-1.5 1.25,-0.25 0.5,-1.5 8.75,-2.5 h 9 l 1.5,0.25 2.5,2.5 -0.25,1.25 -1.25,0.25 -1,1 -1,-1 -17,1 -1.5,1.5 -2.125,35.5 1.375,4 12.75,-0.75 6.5,-1.25 2,-2 h 1 l 1.5,1.5 -1,3 -1.5,1.5 -5.5,1.25"
         id="path10" />
    </g>
    <g
       id="g16"
       transform="matrix(0.26458333,0,0,0.26458333,245.3116,-94.426882)">
      <path
         fill="#000000"
         fill-rule="evenodd"
         d="m -559,940.5 -7,-0.125 -4,-1 -2,-0.875 -1.5,-0.5 -3.5,-3.5 -1.375,-4.5 -0.125,-5 2.125,-8 2.875,-6 0.5,-1.5 11.5,-11.5 4.5,-1.25 4.5,-0.75 1.5,1.5 -1,6 0.5,0.5 2,-2 1.5,-0.5 5,-2 3,-0.875 7,0.125 1.5,0.25 3.5,3.5 0.25,1.5 0.25,6 -1.125,6 -1,3 -1.375,2.5 -2,3 -1,2 -5.5,5.5 -2,1 -6,4 -2.5,1.375 -9,2.125 m 3,-5.25 3,-0.875 8.5,-4.375 8.5,-8.5 2.375,-4.5 1,-4 0.625,-8.75 -2,-0.5 -7,-0.125 -3,1 -10.5,5.375 -1.5,-1.5 v -1 l 2,-2 -1,-1 1,-4 1,-1 -0.5,-0.5 -4,1 -11.5,11.5 -0.5,1.5 -1,2 -2,5 -0.875,4 0.125,7 0.25,1.5 1.5,1.5 4.5,1.25 h 11"
         id="path14" />
    </g>
    <g
       id="g20"
       transform="matrix(0.26458333,0,0,0.26458333,245.3116,-94.426882)">
      <path
         fill="#000000"
         fill-rule="evenodd"
         d="m -487.5,942 -3.5,-0.625 -1.5,-0.375 -1.5,-1.5 0.5,-30.5 1.125,-7 0.125,-3.75 -3.75,0.25 -11,2 -8.75,0.5 0.125,2 0.875,3 v 16 l -0.875,5 -1.375,4.5 -3.5,3.5 -1.5,0.375 -2.75,0.375 -0.25,-1.25 1.5,-1.5 h 1 l 1.5,-1.5 1.25,-3.5 1.25,-8 -0.25,-12 -0.875,-3 -0.875,-2 -0.5,-1.5 -1.5,-1.5 h -1 l -2.5,-2.5 0.25,-2.375 4.75,0.625 2,0.5 9,0.25 11,-2 4,-1 4.5,-0.5 2.5,2.5 -3,40 1.5,1.5 h 2 l 1.5,1.5 v 2 l -1.5,1.5"
         id="path18" />
    </g>
    <g
       id="g24"
       transform="matrix(0.26458333,0,0,0.26458333,245.3116,-94.426882)">
      <path
         fill="#000000"
         fill-rule="evenodd"
         d="m -613,928.75 -4.5,0.25 -1.5,-1.5 0.25,-1.25 1.75,-0.375 19.5,-0.875 1.5,1.5 -1.5,1.5 -15.5,0.75"
         id="path22" />
    </g>
    <g
       id="g28"
       transform="matrix(0.26458333,0,0,0.26458333,245.3116,-94.426882)">
      <path
         fill="#000000"
         fill-rule="evenodd"
         d="m -587.125,941.75 -2.375,0.25 -1.5,-1.5 -1.25,-39.5 1,-8 1.25,-4.5 1.5,-1.5 h 1 l 1.5,1.5 -1,1 -0.125,52.25"
         id="path26" />
    </g>
    <g
       id="g32"
       transform="matrix(0.26458333,0,0,0.26458333,245.3116,-94.426882)">
      <path
         fill="#000000"
         fill-rule="evenodd"
         d="m -622.5,948 -2.25,-0.25 -0.375,-1.75 0.125,-58.75 h 3 l 1,59.25 -1.5,1.5"
         id="path30" />
    </g>
  </g>
</svg>
