<?xml version="1.0" encoding="UTF-8" standalone="no"?>
<!-- Created with Inkscape (http://www.inkscape.org/) -->

<svg
   width="103.45208mm"
   height="15.213541mm"
   viewBox="0 0 103.45208 15.213541"
   version="1.1"
   id="svg1254"
   inkscape:version="1.1.2 (0a00cf5339, 2022-02-04)"
   sodipodi:docname="publications.svg"
   xmlns:inkscape="http://www.inkscape.org/namespaces/inkscape"
   xmlns:sodipodi="http://sodipodi.sourceforge.net/DTD/sodipodi-0.dtd"
   xmlns="http://www.w3.org/2000/svg"
   xmlns:svg="http://www.w3.org/2000/svg">
  <sodipodi:namedview
     id="namedview1256"
     pagecolor="#ffffff"
     bordercolor="#666666"
     borderopacity="1.0"
     inkscape:pageshadow="2"
     inkscape:pageopacity="0.0"
     inkscape:pagecheckerboard="0"
     inkscape:document-units="mm"
     showgrid="false"
     inkscape:zoom="0.77058782"
     inkscape:cx="359.46584"
     inkscape:cy="208.93141"
     inkscape:window-width="953"
     inkscape:window-height="1167"
     inkscape:window-x="0"
     inkscape:window-y="0"
     inkscape:window-maximized="1"
     inkscape:current-layer="layer1" />
  <defs
     id="defs1251" />
  <g
     inkscape:label="Layer 1"
     inkscape:groupmode="layer"
     id="layer1"
     transform="translate(-10.077432,-92.995542)">
    <g
       id="g1052"
       transform="matrix(0.26458333,0,0,0.26458333,179.14618,-183.62633)">
      <path
         fill="#000000"
         fill-rule="evenodd"
         d="m -263,1102.38 -24.75,-1.63 v -2.5 l 1.75,-0.5 25,-0.5 6.5,-1.25 1.5,-1.5 v -1 l -4.5,-4.5 -5.5,-3.5 -8,-4 -1.5,-0.5 -5.5,-5.5 v -5 l 4.5,-4.5 1.5,-0.5 7,-3 4,-1 h 5 l 3.5,0.5 1.5,1.5 -1.5,1.5 -9.5,1.5 -4,1.13 -4,1.87 -1.5,0.5 -2.5,2.5 v 1 l 3.5,3.5 1.5,0.5 10.5,5.5 3,2 2,1 3.5,3.5 0.5,1.5 0.875,2 0.625,3.5 -2.5,2.5 -1.5,0.5 -2,0.88 -4,1.12 -5,0.88"
         id="path1050" />
    </g>
    <g
       id="g1056"
       transform="matrix(0.26458333,0,0,0.26458333,179.14618,-183.62633)">
      <path
         fill="#000000"
         fill-rule="evenodd"
         d="m -356,1097.38 -6.5,-0.38 -2.5,-2.5 -0.375,-2.5 v -7 l 3,-10 0.875,-2 0.5,-1.5 3.5,-3.5 7.5,-5.25 h 8 l 3.5,1.25 2.5,2.5 0.25,1.5 v 10 l -0.875,3 -1.375,2.5 -4.25,6.25 -8.75,5.75 -2,0.88 -3,1 m 1,-5.13 2,-0.75 4.5,-2.5 4.5,-4.5 3.375,-5.5 1,-3 -0.125,-5 -0.25,-1.5 -2.5,-2.5 -3.5,-0.62 -2,0.12 -2,1 -5.5,3.5 -3.5,3.5 -2,12 -1,1 1,1 0.125,4.38 5.875,-0.63"
         id="path1054" />
    </g>
    <g
       id="g1060"
       transform="matrix(0.26458333,0,0,0.26458333,179.14618,-183.62633)">
      <path
         fill="#000000"
         fill-rule="evenodd"
         d="m -373.5,1101 h -1 l -1.5,-1.5 0.875,-30.5 0.75,-4 1.625,-3.75 h 2.5 l -1.75,38.25 -1.5,1.5"
         id="path1058" />
    </g>
    <g
       id="g1064"
       transform="matrix(0.26458333,0,0,0.26458333,179.14618,-183.62633)">
      <path
         fill="#000000"
         fill-rule="evenodd"
         d="m -384.5,1070 h -1 l -1,-1 -1,1 -3.5,-0.62 -4,0.37 -8,-1.5 h -1.875 l 1.875,30.25 -1.5,1.5 -2.375,-0.25 -1.125,-32.62 -12.5,-2.13 -1.5,-1.5 1.5,-1.5 7.5,1.5 3.75,0.25 0.25,-2.25 1.5,-1.5 1.5,1.5 0.25,2.38 22.5,2.37 0.25,2.25 -1.5,1.5"
         id="path1062" />
    </g>
    <g
       id="g1068"
       transform="matrix(0.26458333,0,0,0.26458333,179.14618,-183.62633)">
      <path
         fill="#000000"
         fill-rule="evenodd"
         d="m -418.5,1103 -4.25,-1.25 -0.75,-1.75 -1.875,-4 -1.875,-7 h -9.25 l -2.5,-2.5 1.5,-1.5 9.375,-1.12 -0.875,-14.88 -1,0.5 -0.5,1.5 -10,15 -0.5,1.5 -5.5,5.5 -1.5,0.5 -1.75,0.25 0.375,-2.75 2.375,-3.5 3,-4 9.5,-14.5 1,-2 0.5,-1.5 2,-2 v -3 l 1.5,-1.5 h 1 l 1,-1 1.5,1.5 3.25,23.38 6.5,0.25 0.25,2.37 -1.5,1.5 -4.375,0.13 0.625,6.87 0.75,2 3.5,5.5 -1.5,1.5"
         id="path1066" />
    </g>
    <g
       id="g1072"
       transform="matrix(0.26458333,0,0,0.26458333,179.14618,-183.62633)">
      <path
         fill="#000000"
         fill-rule="evenodd"
         d="m -458,1094.38 -5,1.37 -2,-0.12 -5,-2.13 -4.75,-2.75 -1.625,-3.75 v -3 l 2.875,-7 1,-2 3.75,-5.75 5.75,-3.75 5,-2 4,0.13 1.5,0.37 0.5,0.5 -1.5,1.5 -3.5,0.63 -4.5,2.37 -6.5,6.5 -0.5,1.5 -3,7 -0.5,2.5 2.5,2.5 3.5,1.25 5,0.25 4,-1 3,-1.12 1.75,-0.13 0.25,3.25 -1.5,1.5 -4.5,1.38"
         id="path1070" />
    </g>
    <g
       id="g1076"
       transform="matrix(0.26458333,0,0,0.26458333,179.14618,-183.62633)">
      <path
         fill="#000000"
         fill-rule="evenodd"
         d="m -487.5,1091 h -1 l -1.5,-1.5 2,-26 1.5,-1.5 1.5,0.25 v 19.25 l -1,1 1,1 -1,6 -1.5,1.5"
         id="path1074" />
    </g>
    <g
       id="g1080"
       transform="matrix(0.26458333,0,0,0.26458333,179.14618,-183.62633)">
      <path
         fill="#000000"
         fill-rule="evenodd"
         d="m -511,1099.75 -5.5,-0.75 -1.5,-1.5 3,-35 1.5,-1.5 1.5,1.5 -1.875,32.5 11.875,-0.75 6.5,-1.25 1.5,1.5 v 2 l -1.5,1.5 -15.5,1.75"
         id="path1078" />
    </g>
    <g
       id="g1084"
       transform="matrix(0.26458333,0,0,0.26458333,179.14618,-183.62633)">
      <path
         fill="#000000"
         fill-rule="evenodd"
         d="m -323.5,1096 -4.25,-0.12 -0.25,-1.38 1.5,-1.5 h 1 l 1.5,-1.5 1.375,-10.5 0.625,-14.5 2.5,-2.5 2.5,2.5 0.75,10.5 1.25,4.5 3.5,3.5 3.5,1.25 5.75,0.63 1.625,-5.88 2.75,-24.75 1.375,-0.25 1,-1 2.5,2.5 -3.875,27.5 -1.125,3.5 -2.5,2.5 -9.5,-0.75 -3.5,-1.25 -5,-5 -0.5,0.5 -1,8 -3.5,3.5"
         id="path1082" />
    </g>
    <g
       id="g1088"
       transform="matrix(0.26458333,0,0,0.26458333,179.14618,-183.62633)">
      <path
         fill="#000000"
         fill-rule="evenodd"
         d="m -524,1093.38 -12,2.87 -13.5,-0.25 -2.5,-2.5 v -3 l 2,-2 v -29 l -0.5,-0.5 -1,1 -1.5,0.5 -1.75,0.25 -0.25,-3.25 2.5,-2.5 2.25,-0.25 0.25,-2.25 1.5,-1.5 1.5,1.5 0.25,1.38 7.75,0.75 4,1 4,1.87 4.75,2.75 0.625,1.75 0.625,3.5 1,1 -1,1 -2,4 -2.5,2.5 h -1 l -0.5,0.5 2.5,2.5 h 1 l 6.5,6.5 1,7 -2.5,2.5 -1.5,0.38 m -0.5,-4.38 0.5,-0.5 -1,-1 -1,-3 -3.5,-3.5 -4.5,-2.37 -2.5,-0.63 -2.5,-2.5 1,-1 0.25,-1.25 4.75,-2.75 1.75,-0.75 0.25,-1.25 2,-2 v -2 l -2.5,-2.5 -1.5,-0.5 -4,-1.87 -4,-1.13 -5,-0.37 v 33.37 l 1.5,1.5 5.5,-0.5 14.5,-3.5"
         id="path1086" />
    </g>
    <g
       id="g1092"
       transform="matrix(0.26458333,0,0,0.26458333,179.14618,-183.62633)">
      <path
         fill="#000000"
         fill-rule="evenodd"
         d="m -583,1098.38 -3.5,0.62 -4.5,-4.5 -1.375,-10.5 0.125,-14 0.75,-5 1.25,-5 0.75,-2 1,-2 0.75,-1.75 h 2.5 l -0.25,1.75 -1,2 -0.75,2 -1.125,7 v 15 l 1.375,10.5 1.5,1.5 4,-1 2.5,-2.5 1.5,-2.5 4.5,-6.5 1.375,-2.5 4.125,-11 2,-8 0.5,-5.5 -2,-2 1.5,-1.5 h 4 l 1.5,1.5 -1.625,11.5 -6,17 -0.875,2 -4.5,6.5 -1,2 -5.5,5.5 -1.5,0.5 -2,0.88"
         id="path1090" />
    </g>
    <g
       id="g1096"
       transform="matrix(0.26458333,0,0,0.26458333,179.14618,-183.62633)">
      <path
         fill="#000000"
         fill-rule="evenodd"
         d="m -631.5,1103 -1.25,-0.25 -0.75,-1.75 -0.25,-2 1,-6 1.75,-40.5 1,-1 -0.5,-0.5 h -4 l -2,2 h -1 l -1.5,-1.5 2.5,-2.5 h 1 l 2,-2 3.5,-0.5 4,-1 h 5 l 6,1 4,1 5,2 4,2 1.5,0.5 5.5,5.5 0.375,1.5 1.125,3 0.5,2.5 -2,2 v 1 l -3.5,3.5 -1.5,0.5 -5,2 -3,0.75 -16.5,-0.25 -0.5,-0.5 1,-1 0.25,-1.5 13.75,-0.75 3,-0.75 6.75,-2.75 0.25,-1.25 2,-2 -1,-4 -3.5,-3.5 -1.5,-0.5 -7,-3.12 -2,-0.63 -5,-1.12 -9.5,-0.63 -1.5,1.5 1,1 -0.75,46.5 -0.25,1.5 -2.5,2.5"
         id="path1094" />
    </g>
  </g>
</svg>
