<?xml version="1.0" encoding="UTF-8" standalone="no"?>
<!-- Created with Inkscape (http://www.inkscape.org/) -->

<svg
   width="117.04117mm"
   height="24.114428mm"
   viewBox="0 0 117.04117 24.114428"
   version="1.1"
   id="svg1173"
   inkscape:version="1.1.2 (0a00cf5339, 2022-02-04)"
   sodipodi:docname="publications_highlight.svg"
   xmlns:inkscape="http://www.inkscape.org/namespaces/inkscape"
   xmlns:sodipodi="http://sodipodi.sourceforge.net/DTD/sodipodi-0.dtd"
   xmlns="http://www.w3.org/2000/svg"
   xmlns:svg="http://www.w3.org/2000/svg">
  <sodipodi:namedview
     id="namedview1175"
     pagecolor="#ffffff"
     bordercolor="#666666"
     borderopacity="1.0"
     inkscape:pageshadow="2"
     inkscape:pageopacity="0.0"
     inkscape:pagecheckerboard="0"
     inkscape:document-units="mm"
     showgrid="false"
     inkscape:zoom="0.77058782"
     inkscape:cx="-121.9848"
     inkscape:cy="-268.6261"
     inkscape:window-width="953"
     inkscape:window-height="1167"
     inkscape:window-x="0"
     inkscape:window-y="0"
     inkscape:window-maximized="1"
     inkscape:current-layer="layer1" />
  <defs
     id="defs1170" />
  <g
     inkscape:label="Layer 1"
     inkscape:groupmode="layer"
     id="layer1"
     transform="translate(-137.1904,-219.36244)">
    <g
       id="g800"
       transform="matrix(0.26458333,0,0,0.26458333,304.97544,-175.23759)">
      <path
         fill="none"
         stroke="#ffed75"
         stroke-width="30"
         stroke-linecap="butt"
         stroke-linejoin="bevel"
         opacity="0.500008"
         d="m -562.602,1564.39 -3.591,-0.9 -5.81,-2.07 -0.495,0.09 -1.106,-0.62 -5.661,0.1 -0.973,0.57 -3.018,0.72 -0.861,-0.13 -2.302,0.64 -1.091,-0.06 -1.163,0.49 -5.849,-0.28 -4.928,-2.09 -1.456,0.01 -4.283,-2.09 -1.555,-2.32 -2.861,-2.76 -2.461,-5.27 -0.125,-3.72 -0.348,-1.36 0.041,-6.97 6.236,-13.19 2.191,-3.42 2.579,-1.21 0.212,-0.69 1.268,-1.11 4.024,-1.79 1.447,-0.01 1.466,-0.86 1.584,-0.34 6.372,-3.3 4.574,-0.14 1.082,-0.55 8.978,-0.01 6.142,-0.59 5.022,0.02 0.856,0.54 9.464,0.03 3.735,0.82 2.868,-0.15 0.859,0.36 1.621,-0.02 5.222,1.36 2.745,0.04 3.945,0.77 4.477,-0.1 9.698,1.18 1.561,0.79 3.806,0.48 0.855,0.49 3.474,0.18 2.859,0.59 2.09,-0.05 0.567,0.36 3.489,0.21 0.562,0.35 3.352,-0.08 0.942,0.38 3.945,0.05 1.605,0.36 3.414,-0.07 0.927,0.36 2.527,-0.09 4.125,0.46 0.957,0.5 2.389,0.41 5.978,0.34 1.273,0.35 22.105,0.07 2.265,0.34 21.423,-0.07 1.522,-0.35 8.748,-0.37 12.861,0.02 5.484,-0.31 5.062,-1.11 3.695,-0.35 14.503,0.09 2.9,0.35 11.361,-0.07 8.294,-1.29 1.785,0.08 4.196,-0.56 3.131,0.09 1.172,-0.34 19.498,0.05 4.448,-0.32 6.124,0.04 1.883,-0.38 11.267,0.09 3.196,0.67 18.627,-0.1 0.718,0.36 2.576,-0.1 1.314,0.36 1.42,-0.06 1.137,0.51 1.768,-0.11 0.857,0.37 13.187,-0.07 2.869,-0.98 13.965,0.14 7.151,3.31 0.828,1.5 2.632,2.04 2.176,2.41 0.463,0.01 2.736,3.25 0.781,2.04 4.184,7.88 0.035,3.26 -0.643,1.05 -6.146,3.1 -2.887,0.45 -1.463,0.64 -2.438,0.18 -0.587,0.52 -1.065,0.07 -4.617,1.92 -5.219,0.02 -3.56,-0.45 -11.855,0.03 -3.141,0.67 -18.949,0.03 -2.902,0.54 -1.59,-0.07 -3.419,0.82 -27.555,-0.02 -5.59,-0.96 -28.665,0.11 -1.707,-0.35 -4.067,-0.09 -6.975,0.02 -2.831,0.74 -14.13,-0.03 -5.177,1.02 -2.752,0.03 -9.001,1.35 -17.123,6.46 -12.139,1.52 -9.713,-0.13 -5.104,-0.83 -4.598,-0.14 -3.508,-0.8 -5.107,0.12 -5.686,-0.48 -13.421,0.05 -2.865,0.49 -7.597,-0.07 -4.125,0.68 -1.342,-0.06 -3.972,0.95 -7.852,1.2 -4.783,1.18 -3.459,-0.2 -2.981,0.58 -1.415,-0.07 -1.62,0.49 -12.056,0.04 -4.264,0.95 -13.072,-0.11 -1.134,-0.36 -5.835,0.07 -1.401,-0.49 -9.599,-0.11 -4.637,0.04 -5.542,1.03 -13.152,-0.17 -2.347,-0.89 -1.938,-0.33 -4.555,-2.31 -0.56,-0.64 -1.473,-0.63 -8.305,-5.91 -3.486,-1.87 -4.63,-3.15 -8.905,-8.48 -2.915,-5.22 -2.426,-1.26 -2.605,-4.54 -0.199,-4.33 0.56,-0.85 -0.102,-1.15 0.482,-1.94 1.002,-1.85 1.648,-1.33 1.457,-2.81 1.047,-0.41 1.735,-2.29 4.059,-2.37 4.337,-2.07 1.851,-0.66 0.745,0.13 0.998,-0.55 0.814,0.08 2.6,-1.03 4.137,-0.07 1.154,0.54 5.521,0.03 1.17,-0.54 1.124,0.1 1.066,-0.5 2.502,0.1 1.265,-0.34 11.762,0.05 5.014,-0.27 1.142,0.7 0.613,-0.05 1.291,0.57 1.716,1.04 1.639,2.17 1.581,3.31 -0.137,5.77 -0.569,1.67 -1.186,2.09 -0.243,1.14 -3.668,2.54 -2.175,2.3 -1.267,0.71 -5.226,4.54 -0.912,0.53 -3.138,0.73 -1.423,0.94 -3.108,0.96 -5.347,-0.12 -3.336,-1.7 -2.071,-1.85 -1.7,-3.64 0.524,-0.93 2.832,-1.32 2.866,-0.34 4.973,0.07 2.391,0.61 0.706,0.49 -0.279,0.61 7.263,4.9 3.068,3.54 3.069,5.92 0.129,1.32 2.082,0.9 3.393,-0.35 5.661,-1.9 14.348,-3.38 5.214,0.01 6.553,-0.48 2.863,-0.3 5.662,-1.36 12.889,0.01 1.613,-0.72 0.747,0.05 3.321,-1.02 6.485,-1.07 5.418,0.11 7.502,1.4 13.154,0.13 2.861,0.71 2.23,-0.09 5.902,1.09 1.12,-0.12 7.751,1.67 17.524,2.65 h 48.052 l 6.129,-1.16 3.653,-0.34 54.629,-0.05 9.811,-1.55 1.746,-0.52 28.587,0.1 3.573,-0.85 1.041,-0.54 6.56,0.12 1.791,-0.49 2.788,-0.2 0.884,-0.58 2.039,-0.43 13.487,-0.13 0.834,0.46 1.599,3.42 -0.109,4.87 -1.919,3.48 -7.157,3.35 -4.979,-0.09 -4.783,1.98 -1.136,0.38 -0.866,-0.09 -4.087,1.67 -2.093,0.54 -1.931,1.02 -3.256,0.97 -1.706,1.3 -5.205,1.52 -6.896,3.27 -3.047,1.09 -2.947,2.02 -1.015,0.37 -2.481,-1.04 -2.878,0.1 -1.447,-0.92 -6.142,-1.65 -2.422,-1.34 -3.477,-0.38 -1.574,-0.79 -3.555,-0.85 -4.536,-0.01 -0.646,-0.36 -4.745,-0.68 -1.765,0.06 -3.919,-0.66 -2.574,-0.08 -2.173,-0.84 -1.33,0.13 -2.586,-0.79 -13.448,-0.16 -1.271,-0.54 -2.684,-0.05 -0.851,-0.53 -5.435,0.13 -2.293,-0.29 -1.078,-0.51 -1.682,0.11 -6.319,-0.74"
         id="path798" />
    </g>
  </g>
</svg>
