<?xml version="1.0" encoding="UTF-8" standalone="no"?>
<!-- Created with Inkscape (http://www.inkscape.org/) -->

<svg
   width="123.22968mm"
   height="24.27552mm"
   viewBox="0 0 123.22968 24.27552"
   version="1.1"
   id="svg2844"
   inkscape:version="1.1.2 (0a00cf5339, 2022-02-04)"
   sodipodi:docname="publications_header.svg"
   xmlns:inkscape="http://www.inkscape.org/namespaces/inkscape"
   xmlns:sodipodi="http://sodipodi.sourceforge.net/DTD/sodipodi-0.dtd"
   xmlns="http://www.w3.org/2000/svg"
   xmlns:svg="http://www.w3.org/2000/svg">
  <sodipodi:namedview
     id="namedview2846"
     pagecolor="#ffffff"
     bordercolor="#666666"
     borderopacity="1.0"
     inkscape:pageshadow="2"
     inkscape:pageopacity="0.0"
     inkscape:pagecheckerboard="0"
     inkscape:document-units="mm"
     showgrid="false"
     inkscape:zoom="0.77058782"
     inkscape:cx="375.68722"
     inkscape:cy="15.572527"
     inkscape:window-width="953"
     inkscape:window-height="1167"
     inkscape:window-x="0"
     inkscape:window-y="0"
     inkscape:window-maximized="1"
     inkscape:current-layer="layer1" />
  <defs
     id="defs2841" />
  <g
     inkscape:label="Layer 1"
     inkscape:groupmode="layer"
     id="layer1"
     transform="translate(64.705021,-144.08767)">
    <g
       id="g1424"
       transform="matrix(0.26458333,0,0,0.26458333,119.70956,-362.39097)">
      <path
         fill="#000000"
         fill-rule="evenodd"
         d="m -241.5,2006 h -454.25 l -0.25,-1.5 -1,-1 0.5,-0.5 455,-1 1.5,1.5 v 1 l -1.5,1.5"
         id="path1422" />
    </g>
    <g
       id="g1428"
       transform="matrix(0.26458333,0,0,0.26458333,119.70956,-362.39097)">
      <path
         fill="#000000"
         fill-rule="evenodd"
         d="m -233,1997.13 -462.5,-0.13 -1.5,-1.5 v -1 l 0.5,-0.5 1,1 462.5,-1.12 1.75,0.37 v 2.5 l -1.75,0.38"
         id="path1426" />
    </g>
    <g
       id="g1432"
       transform="matrix(0.26458333,0,0,0.26458333,119.70956,-362.39097)">
      <path
         fill="#000000"
         fill-rule="evenodd"
         d="m -243,1983.38 -10,0.12 -15,-2.25 -4.5,-1.25 -1.5,-1.5 v -1 l 1.5,-1.5 3.5,1.13 11,1.37 18.5,-0.5 1.5,-1.5 v -2 l -2,-2 -4.25,-6.25 -10.75,-6.75 -8.5,-4.5 -2.5,-2.5 -0.375,-1.5 -1.25,-3 0.125,-2 1,-2 0.5,-1.5 4.5,-4.5 1.5,-0.37 3,-1.13 7,-1.87 4.5,-0.63 0.5,0.5 -1,1 -0.25,1.25 -2.75,0.75 -5,2 -4,2 -1.5,0.5 -2.5,2.5 -1,4 3.5,3.5 11,6 3.5,2.5 2.5,1.5 4.5,4.5 1,2 2,3 1.25,2.5 0.625,5.75 -1.875,0.75 -4,1.88 -4,1"
         id="path1430" />
    </g>
    <g
       id="g1436"
       transform="matrix(0.26458333,0,0,0.26458333,119.70956,-362.39097)">
      <path
         fill="#000000"
         fill-rule="evenodd"
         d="m -296,1976.38 -5.5,-0.38 -2,-2 -1.25,-0.25 -3.75,-5.75 -5,-11 -2.5,-9.5 -1.5,-1.5 -0.5,0.5 -0.5,2.5 -3.125,9 -2.875,6 -0.5,1.5 -1.5,1.5 -1.5,0.38 h -3 l -1.75,-0.63 -0.25,-1.25 1.5,-1.5 2.25,-0.25 0.75,-1.75 4,-9 3.125,-9 0.875,-2 0.5,-1.5 1.5,-1.5 h 2 l 3.5,3.5 0.5,2.5 3,10 2,5 4.5,8.5 3.5,3.5 4,-1 3.5,-3.5 1,-2 3.5,-5.5 1.875,-4 3.25,-12 5,-16 0.375,-2.5 1.5,-1.5 2.375,0.25 -0.5,6.75 -2,8 -4.875,16 -2,5 -2.5,4.5 -2,3 -1,2 -6.5,6.5 -1.5,0.38"
         id="path1434" />
    </g>
    <g
       id="g1440"
       transform="matrix(0.26458333,0,0,0.26458333,119.70956,-362.39097)">
      <path
         fill="#000000"
         fill-rule="evenodd"
         d="m -378.25,1971.75 -2.25,0.25 -1.5,-1.5 -1.5,-5.5 -0.75,-5 -0.75,-24.5 1.5,-1.5 h 1 l 1.5,1.5 0.75,21.5 2,14.75"
         id="path1438" />
    </g>
    <g
       id="g1444"
       transform="matrix(0.26458333,0,0,0.26458333,119.70956,-362.39097)">
      <path
         fill="#000000"
         fill-rule="evenodd"
         d="m -349,1961.5 h -4 l -3,-1.12 -1.5,-0.38 -4.5,-4.5 v -3 l -1,-1 1,-1 0.5,-1.5 2,-4 0.5,-1.5 6.5,-6.5 h 1 l 2,-2 h 2 l 0.5,-0.5 -1,-1 0.25,-1.37 4.25,-0.13 5.5,5.5 0.5,1.5 0.875,2 1.125,4 -0.5,9.5 -4.5,4.5 -8.5,2.5 m 3,-5.25 3.5,-1.25 1.5,-1.5 0.25,-1.5 v -9 l -0.75,-2 -2.5,-4.5 -1.5,-1.5 -1.25,0.25 -0.25,1.25 -4.5,4.5 h -1 l -1.5,1.5 -0.5,1.5 -2.875,6 -0.625,3.5 2.5,2.5 9.5,0.25"
         id="path1442" />
    </g>
    <g
       id="g1452"
       transform="matrix(0.26458333,0,0,0.26458333,119.70956,-362.39097)">
      <path
         fill="#000000"
         fill-rule="evenodd"
         d="m -416.5,1970 h -2 l -1.5,-1.5 1.25,-3.5 4.75,-24.5 1,-1 -0.5,-0.5 -14,-1 -1.5,-1.5 1.5,-1.5 h 36 l 1.5,1.5 -2.5,2.5 -4.5,0.5 -5,1 -7.75,-0.25 -4.25,27.25 -2.5,2.5"
         id="path1450" />
    </g>
    <g
       id="g1456"
       transform="matrix(0.26458333,0,0,0.26458333,119.70956,-362.39097)">
      <path
         fill="#000000"
         fill-rule="evenodd"
         d="m -429.125,1980.75 -3.375,0.25 -1.5,-1.5 -0.5,-1.5 -3.875,-8 -1.125,-4 -0.5,-3.5 -1.5,-1.5 -6.5,-0.5 -10.75,-2.75 v -2.5 l 3.75,0.25 11,2.25 h 1.75 l -0.25,-3.75 -3.5,-17.5 -0.5,-0.5 -2.5,2.5 -12,14 -2.5,3.5 -7.5,11.5 -1,2 -2,2 1,1 -0.25,2.25 -6.75,2.75 -4,0.88 -8,-0.13 -3,-0.75 -3,-1.12 -1.5,-0.38 -1.5,-1.5 -1.25,-3.5 v -9 l 2.75,-7 1.5,-2.5 2.5,-3.5 1.5,-2.5 8.5,-8.5 1.5,-0.5 2,-0.87 4,-1.13 3.75,-0.25 v 2.5 l -3.75,0.75 -3,1.13 -1.5,0.37 -7.5,7.5 -1.5,2.5 -2.5,3.5 -1.375,2.5 -2,5 -0.625,3.5 -1,1 1,1 v 4 l 1.5,1.5 3.5,1.13 15.5,-0.13 0.5,-0.5 -1,-1 3,-3 2.5,-4.5 4,-6 2.5,-4.5 5,-7 9.5,-11.5 1.5,-2.5 2.5,-2.5 h 3 l 1.5,1.5 6.25,26.25 1.75,-0.25 1.5,-0.5 1.5,1.5 -0.25,1.25 -3.5,1.5 0.125,1.75 1.125,4 2,5 1,2 0.75,1.75 1.625,0.5 v 4.5"
         id="path1454" />
    </g>
    <g
       id="g1460"
       transform="matrix(0.26458333,0,0,0.26458333,119.70956,-362.39097)">
      <path
         fill="#000000"
         fill-rule="evenodd"
         d="m -511.25,1981.75 -2.25,0.25 -2.5,-2.5 -1,-10 -0.5,-0.5 -1,1 -1.5,0.5 -7,3.13 -10,2.75 -5,-0.13 -1.5,-0.25 -1.5,-1.5 0.25,-37.25 2.25,-0.25 1.5,1.5 1.5,7.5 v 5 l -2.5,19.5 1.5,1.5 4.5,-0.5 7,-1.87 5,-2.13 2,-1 1.5,-0.5 1.5,-1.5 v -1 l 3,-3 v -20 l 1.5,-1.5 1.5,1.5 1.75,41.25"
         id="path1458" />
    </g>
    <g
       id="g1464"
       transform="matrix(0.26458333,0,0,0.26458333,119.70956,-362.39097)">
      <path
         fill="#000000"
         fill-rule="evenodd"
         d="m -559,1987.38 h -7 l -4,-1 -2,-0.88 -1.5,-0.5 -2.5,-2.5 -0.5,-1.5 -2.125,-5 -0.125,-2 0.875,-4.75 2.375,-1.25 2.375,-0.75 -0.125,9.75 0.25,1.5 3.5,3.5 1.5,0.25 h 10 l 3.5,-1.25 1.5,-1.5 -0.75,-7.5 -1.25,-4.5 -3,-3 -7,-9 -3.375,-6.5 -1,-3 -0.625,-4.5 -2.5,-2.5 -7,1 -1.5,1.5 1,37 -1.5,1.5 -3.25,-0.25 -2.5,-4.75 -1.25,-9 0.125,-13 2.375,-14.5 1.5,-1.5 1.5,-0.37 3,-1.13 2.5,-0.5 1,1 1,-1 1.5,-0.5 h 2 l 2,1 1.5,0.5 1.5,1.5 2.75,9.5 0.75,2 1,2 2,3 6.5,8.5 3,3 0.625,2.5 1.75,5 -0.125,7 -1.25,3.5 -1.5,1.5 -1.5,0.38 -3,1.12 -3,0.88 M -583,1953 v -4.5 l -1,-0.5 v 4.5 l 1,0.5"
         id="path1462" />
    </g>
    <g
       id="g1468"
       transform="matrix(0.26458333,0,0,0.26458333,119.70956,-362.39097)">
      <path
         fill="#000000"
         fill-rule="evenodd"
         d="m -616,1980.63 -2,-0.13 -2,-1 -1.5,-0.5 -2.5,-2.5 -1.25,-5.5 v -17 l 0.75,-6 2,-8 2.5,-6.5 2.5,-2.5 1.5,1.5 v 1 l -2,2 -3.375,20.5 0.375,16.5 3.5,3.5 2.5,-0.62 2,-0.75 2.5,-0.63 2,-2 h 1 l 2.5,-2.5 1.5,-2.5 2.5,-3.5 1.5,-2.5 3,-8 1,-4 1,-6 1.5,-5.5 2.5,-2.5 1,1 1.25,0.25 -0.375,2.75 -0.625,2 -3.25,14 -2.125,6 -0.875,2 -1.5,2.5 -2.5,3.5 -1.5,2.5 -5.5,5.5 -1.5,0.5 -8,3.13"
         id="path1466" />
    </g>
    <g
       id="g1472"
       transform="matrix(0.26458333,0,0,0.26458333,119.70956,-362.39097)">
      <path
         fill="#000000"
         fill-rule="evenodd"
         d="m -674.5,1980 h -2 l -1.5,-1.5 v -14 l 1,-1 -1,-1 2,-40.25 -2,0.25 -2,1 -1.5,0.5 -2,2 h -3 l -0.5,-0.5 1,-1 0.25,-1.25 5.75,-3.75 4,-1.87 4,-1.13 13,-2.25 h 2 l 10,2.25 3,1 2.5,0.5 2,2 h 1 l 4.5,4.5 1.25,3.5 v 7 l -0.25,1.5 -2.5,2.5 -1.5,0.5 -11,5.88 -13,5 -3.5,0.62 -1,1 -1,-1 -2.25,-0.25 -0.25,-2.25 1.5,-1.5 4.5,-0.75 15,-5.75 4,-2 1.5,-0.5 3,-3 2.25,-0.25 0.625,-1.75 v -3 l -0.875,-2 -0.5,-1.5 -1.5,-1.5 -6.5,-3.37 -3,-1 -5,-1 -17.5,0.37 -1.5,1.5 v 57 l -1.5,1.5"
         id="path1470" />
    </g>
  </g>
</svg>
