<?xml version="1.0" encoding="UTF-8" standalone="no"?>
<!-- Created with Inkscape (http://www.inkscape.org/) -->

<svg
   width="170.92084mm"
   height="22.127104mm"
   viewBox="0 0 170.92084 22.127104"
   version="1.1"
   id="svg2509"
   inkscape:version="1.1.2 (0a00cf5339, 2022-02-04)"
   sodipodi:docname="stuff_heading.svg"
   xmlns:inkscape="http://www.inkscape.org/namespaces/inkscape"
   xmlns:sodipodi="http://sodipodi.sourceforge.net/DTD/sodipodi-0.dtd"
   xmlns="http://www.w3.org/2000/svg"
   xmlns:svg="http://www.w3.org/2000/svg">
  <sodipodi:namedview
     id="namedview2511"
     pagecolor="#ffffff"
     bordercolor="#666666"
     borderopacity="1.0"
     inkscape:pageshadow="2"
     inkscape:pageopacity="0.0"
     inkscape:pagecheckerboard="0"
     inkscape:document-units="mm"
     showgrid="false"
     inkscape:zoom="0.27244394"
     inkscape:cx="600.12347"
     inkscape:cy="396.41183"
     inkscape:window-width="953"
     inkscape:window-height="1167"
     inkscape:window-x="0"
     inkscape:window-y="0"
     inkscape:window-maximized="1"
     inkscape:current-layer="layer1" />
  <defs
     id="defs2506" />
  <g
     inkscape:label="Layer 1"
     inkscape:groupmode="layer"
     id="layer1"
     transform="translate(77.906654,-98.809283)">
    <g
       id="g1552"
       transform="matrix(0.26458333,0,0,0.26458333,103.59751,-554.57925)">
      <path
         fill="#000000"
         fill-rule="evenodd"
         d="m -49,2553.13 -632.5,-0.13 -1.5,-1.5 0.25,-1.5 634.25,-1 1.5,1.5 -0.25,2.25 -1.75,0.38"
         id="path1550" />
    </g>
    <g
       id="g1556"
       transform="matrix(0.26458333,0,0,0.26458333,103.59751,-554.57925)">
      <path
         fill="#000000"
         fill-rule="evenodd"
         d="m -42,2542.13 -642.5,-0.13 -1.5,-1.5 v -1 l 0.5,-0.5 1,1 1,-1 642,-1 1.5,1.5 -0.25,2.25 -1.75,0.38"
         id="path1554" />
    </g>
    <g
       id="g1560"
       transform="matrix(0.26458333,0,0,0.26458333,103.59751,-554.57925)">
      <path
         fill="#000000"
         fill-rule="evenodd"
         d="m -68,2527.5 -4,1.13 h -2 l -6.5,-1.63 -1.5,-1.5 v -3 l 1.5,-1.5 2,2 1.5,0.25 7,0.13 9,-3 4,-1.88 1.5,-0.5 5.5,-5.5 -3.5,-3.5 -1.5,-0.5 -16,-6.12 -5.75,-3.63 -0.25,-2.25 5.5,-5.5 1.5,-0.5 10,-6 1.5,-0.5 3,-3 1.5,1.5 v 1 l -2.5,2.5 -2,1 -7,5 -2,1 -3.5,3.5 0.25,1.25 13.75,4.88 4,1.87 4.5,2.5 1.5,1.5 0.25,1.5 v 5 l -0.25,1.5 -2.5,2.5 -5,3 -2,2 -2.5,0.63 -2,0.75 -7,2.12"
         id="path1558" />
    </g>
    <g
       id="g1564"
       transform="matrix(0.26458333,0,0,0.26458333,103.59751,-554.57925)">
      <path
         fill="#000000"
         fill-rule="evenodd"
         d="m -156,2505.25 h -10 l -1.75,-0.5 v -2.5 l 10.75,0.13 4,-0.88 2.75,-0.25 v 2.5 l -5.75,1.5"
         id="path1562" />
    </g>
    <g
       id="g1568"
       transform="matrix(0.26458333,0,0,0.26458333,103.59751,-554.57925)">
      <path
         fill="#000000"
         fill-rule="evenodd"
         d="m -162,2527.5 -8.5,-0.5 -2.5,-2.5 -3,-31 -2,-2 0.25,-3.25 1.25,-0.25 3.5,3.5 4.25,31.25 1.25,0.25 1,1 1,-1 5.5,-0.62 4.75,-1.63 3.25,-5.25 1.5,-1.5 1.25,0.25 -0.25,3.75 -0.5,2.5 -2,2 v 1 l -1.5,1.5 -8.5,2.5"
         id="path1566" />
    </g>
    <g
       id="g1572"
       transform="matrix(0.26458333,0,0,0.26458333,103.59751,-554.57925)">
      <path
         fill="#000000"
         fill-rule="evenodd"
         d="m -149,2491.25 -18.5,-0.25 -1.5,-1.5 v -2 l 0.5,-0.5 1,1 h 20 l 1.5,1.5 -0.25,1.25 -2.75,0.5"
         id="path1570" />
    </g>
    <g
       id="g1576"
       transform="matrix(0.26458333,0,0,0.26458333,103.59751,-554.57925)">
      <path
         fill="#000000"
         fill-rule="evenodd"
         d="m -128,2527.38 -7.5,0.62 -2.5,-2.5 0.5,-2.5 1.125,-3 0.375,-1.5 1.5,-1.5 1.25,0.25 -0.5,5.5 1.25,0.25 1,1 1,-1 4.5,-0.62 10,-3 6.75,-4.63 0.25,-2.25 -2,-2 -0.25,-1.25 -1.75,-0.75 -7,-4 -7,-3 -5.5,-3.5 -2,-1 -2.5,-2.5 -1,-8 2,-2 v -1 l 3.5,-3.5 8,-1 1.5,1.5 -0.5,0.5 -3.5,0.5 -3,1.13 -1.5,0.37 -1.5,1.5 -0.5,1.5 -0.875,2 v 3 l 0.375,1.5 1.5,1.5 2,1 5.5,3.5 2,0.88 4,1.25 9.5,5.37 3.5,3.5 v 1 l 0.5,0.5 1.5,-1.5 0.5,-10.5 1.5,-11.5 -1.5,-1.5 -8.5,0.75 -2.5,1.25 -2.25,0.75 -0.25,-2.25 2.5,-2.5 13,-1 2,-2 1.25,0.25 0.25,2.25 1.5,1.5 9.5,0.75 7.5,2.25 1.5,1.5 -1.5,1.5 -18,-2 -1,-1 -0.5,0.5 -0.875,11.5 -0.125,21.5 -1.5,1.5 h -1 l -1.5,-1.5 v -3 l -1,-1 1,-1 v -4.5 l -1,0.5 v 3 l -7.5,7.5 -1.5,0.38 -3,1.12 -11,2.88"
         id="path1574" />
    </g>
    <g
       id="g1580"
       transform="matrix(0.26458333,0,0,0.26458333,103.59751,-554.57925)">
      <path
         fill="#000000"
         fill-rule="evenodd"
         d="m -229,2507.5 -5.5,-0.5 -1.5,-1.5 0.25,-2.25 h 1.5 l 0.25,1.25 0.5,0.5 1,-1 1,1 2.5,-0.5 6,-2.12 2,-0.88 1.75,-0.25 0.25,2.25 -1.5,1.5 -2.5,0.5 -6,2"
         id="path1578" />
    </g>
    <g
       id="g1584"
       transform="matrix(0.26458333,0,0,0.26458333,103.59751,-554.57925)">
      <path
         fill="#000000"
         fill-rule="evenodd"
         d="m -180,2519.25 h -9 l -2,-0.75 -4,-2 -1.5,-0.5 -2.5,-2.5 -1,-6 2,-2 0.5,-1.5 3.5,-5.5 1,-1 -1,-1 v -1 l -2.5,-2.5 -7.5,0.75 -1.75,0.5 -0.625,1.75 -0.125,4 2,10 -0.25,5 -0.25,1.5 -2.5,2.5 -3.5,-3.5 -1.375,-7.5 v -9 l 0.875,-4 -0.125,-3 -0.375,-1.5 1.5,-1.5 1.25,0.25 0.25,1.25 0.5,0.5 1,-1 5.5,-1.5 5,0.13 4.75,1.62 2.5,4.75 v 5 l -3.75,6 -0.875,2 -0.375,3.75 1.75,0.75 4,2 2,0.75 h 8 l 1.5,-0.25 1.5,1.5 v 1 l -1.5,1.5 -2.5,0.25"
         id="path1582" />
    </g>
    <g
       id="g1588"
       transform="matrix(0.26458333,0,0,0.26458333,103.59751,-554.57925)">
      <path
         fill="#000000"
         fill-rule="evenodd"
         d="m -214.5,2494 -11.5,-0.87 -3.5,-1.13 -1.5,-1.5 v -1 l 1.5,-1.5 4.5,2.13 11.75,0.87 0.25,1.5 -1.5,1.5"
         id="path1586" />
    </g>
    <g
       id="g1592"
       transform="matrix(0.26458333,0,0,0.26458333,103.59751,-554.57925)">
      <path
         fill="#000000"
         fill-rule="evenodd"
         d="m -222.25,2525 -14.75,-0.87 -3.5,-1.13 -1.5,-1.5 -0.5,-1.5 -1,-2 -0.75,-2 -0.125,-10 1,-4 1.75,-4 1.125,-4 1.125,-3 0.375,-1.5 1.5,-1.5 1.5,1.5 -0.5,2.5 -2.75,8 -1.125,5 0.125,9 1.25,3.5 2.5,2.5 11,1 2.5,-2.5 0.375,-1.5 0.625,-3.5 1.5,-1.5 1.375,0.25 -0.5,5.75 -1,3 -1.625,4"
         id="path1590" />
    </g>
    <g
       id="g1596"
       transform="matrix(0.26458333,0,0,0.26458333,103.59751,-554.57925)">
      <path
         fill="#000000"
         fill-rule="evenodd"
         d="m -288,2519.25 -5.5,0.75 -4.5,-4.5 -2,-8 v -0.5 l -1,0.5 -0.5,3.5 -2.5,7.5 -1.5,1.5 -1.25,-0.25 -0.25,-1.25 1,-1 -1,-1 1,-1 3.5,-13.5 2.5,-16.5 1.5,-1.5 h 1 l 1.5,1.5 -0.25,18.5 1.25,8.5 3.5,3.5 4,-2 2.5,-2.5 1.5,-2.5 3,-4 2,-3 1.875,-4 0.625,-3.5 2.5,-2.5 2.375,0.25 -0.5,4.75 -1,3 -1.875,4 -1.5,2.5 -2.5,3.5 -1.5,2.5 -6.5,6.5 -1.5,0.25"
         id="path1594" />
    </g>
    <g
       id="g1600"
       transform="matrix(0.26458333,0,0,0.26458333,103.59751,-554.57925)">
      <path
         fill="#000000"
         fill-rule="evenodd"
         d="m -260,2516.5 -1.5,1.5 -1,-1 -1.25,-0.25 -0.625,-1.75 -0.375,-3 0.125,-14 -1.625,-10 -10.25,-1 -2.5,-2.5 0.25,-1.25 2.75,0.38 2,0.75 4,0.12 2.75,-0.75 0.5,-1.5 1.25,-0.25 2,2 17,1 2.5,2.5 v 1 l -1.5,1.5 -1,-1 -16.25,-1 0.25,3 3.125,12 0.25,2 -0.875,11.5"
         id="path1598" />
    </g>
    <g
       id="g1604"
       transform="matrix(0.26458333,0,0,0.26458333,103.59751,-554.57925)">
      <path
         fill="#000000"
         fill-rule="evenodd"
         d="m -318.5,2518 -1.25,-0.25 -0.375,-1.75 -0.875,-36.5 1.5,-1.5 1.5,1.5 v 36 l 1,1 -1.5,1.5"
         id="path1602" />
    </g>
    <g
       id="g1612"
       transform="matrix(0.26458333,0,0,0.26458333,103.59751,-554.57925)">
      <path
         fill="#000000"
         fill-rule="evenodd"
         d="m -357.25,2525.75 h -1.5 l -0.5,-1.5 -2.25,-0.25 -2,-2 -8.5,-4.5 -1.5,-0.5 -2,-2 h -3 l -3,3 -1.5,0.38 -3,1.12 -3,0.75 -10.5,0.75 -2.5,-2.5 0.625,-6.5 1,-3 1.875,-4 0.5,-1.5 5,-5 -0.5,-3.5 -0.875,-3 0.125,-7 0.75,-2 1,-2 3.75,-5.75 4.75,-2.5 9.75,-0.75 0.5,2 v 8 l -0.25,1.5 -2.5,2.5 -1.25,0.25 -5.25,7.25 -5,5 1,1 2,4 5.5,5.5 2.5,-0.62 4,-2.88 12.5,-10.5 2.5,-2.5 v -1 l 1.5,-1.5 h 2 l 1.5,1.5 v 2 l -10.5,10.5 -5,3 -5.5,5.5 1.5,1.5 6.5,3.38 2.5,0.62 3,3 h 1 l 2.5,2.5 -0.25,2.25 m -30.75,-32.25 9,-11 2.375,-3.5 0.375,-3.87 -5.75,0.62 -3.75,1.5 -0.25,1.25 -4,4 -0.375,2.5 v 7 l 0.375,2.5 0.5,0.5 1.5,-1.5 m 2,21.88 1.5,-0.38 3.5,-3.5 -1.5,-1.5 h -1 l -5.5,-5.5 v -1 l -1.5,-1.5 h -1 l -2.5,2.5 -0.5,1.5 -1,2 -2,5 -0.25,4 11.75,-1.62"
         id="path1610" />
    </g>
    <g
       id="g1616"
       transform="matrix(0.26458333,0,0,0.26458333,103.59751,-554.57925)">
      <path
         fill="#000000"
         fill-rule="evenodd"
         d="m -436,2519.38 -13,-0.13 -4,-0.87 -1.75,-0.63 -0.625,-1.75 -0.375,-2.75 1.25,-0.25 1,-1 3,3 11.5,0.5 10.5,-2.5 2.5,-2.5 -0.25,-2.25 -8.75,-4.62 -9,-3.25 -4,-1.88 -1.5,-0.5 -2.5,-2.5 v -1 l -1,-1 1,-1 v -1 l 4.5,-4.5 1.5,-0.37 8,-3.25 1.5,-0.38 1,-1 1.5,1.5 -1,1 v 1 l -0.5,0.5 -1,-1 -2,2 -4.5,2.5 -1.5,0.5 -3.5,3.5 0.5,0.5 1.5,0.5 15,6 6.5,3.5 2.5,2.5 1,5 -5.5,5.5 -9.5,2.38"
         id="path1614" />
    </g>
    <g
       id="g1620"
       transform="matrix(0.26458333,0,0,0.26458333,103.59751,-554.57925)">
      <path
         fill="#000000"
         fill-rule="evenodd"
         d="m -472.5,2517 -2.375,-0.25 0.875,-25.62 -5,-0.75 -10.75,-2.63 -0.25,-1.25 1.5,-1.5 1,1 13.25,0.88 0.5,-1.63 h 2.5 l 0.5,1.63 16.25,-0.88 1.5,1.5 v 1 l -1.5,1.5 -15.5,1.13 v 23.37 l -2.5,2.5"
         id="path1618" />
    </g>
    <g
       id="g1624"
       transform="matrix(0.26458333,0,0,0.26458333,103.59751,-554.57925)">
      <path
         fill="#000000"
         fill-rule="evenodd"
         d="m -504,2517.63 -3,-0.13 -6.5,-2.5 -3.5,-3.5 -1.25,-3.5 v -9 l 0.875,-3 0.875,-2 2.5,-4.5 5.5,-5.5 4.5,-2.37 3,-0.88 7.5,-0.75 1.5,1.5 v 1 l -0.5,0.5 -1,-1 -1,1 -8,1 -2,2 h -1 l -4.5,4.5 -0.5,1.5 -4,9 v 4 l 1.125,3 0.375,1.5 1.5,1.5 3.5,1.25 7,0.13 3,-0.88 8,-3.12 1.5,-0.38 2,-2 h 2 l 0.5,0.5 -1,1 v 1 l -1.5,1.5 -5,3 -2,2 -10.5,2.63"
         id="path1622" />
    </g>
    <g
       id="g1628"
       transform="matrix(0.26458333,0,0,0.26458333,103.59751,-554.57925)">
      <path
         fill="#000000"
         fill-rule="evenodd"
         d="m -546,2519.25 h -9 l -3.5,-1.25 -2.5,-2.5 -0.25,-1.5 v -8 l 0.75,-3 2,-5 7.5,-13.5 3.5,-3.5 26,1 1.5,1.5 -0.25,1.5 -26.25,-1 -1.5,1.5 -1,2 -3.5,5.5 -2,4 -0.5,1.5 -1,1 0.5,0.5 19.25,-2.75 0.25,1.25 -1.5,1.5 -5.5,1.25 -13.75,0.75 -0.625,3 0.125,7 0.5,1.75 3.75,1.63 4,0.12 4,-1 5,-2 2,-1 1.5,-0.5 1.5,-1.5 0.25,-2.25 h 2.5 l 0.75,1.75 v 2 l -0.5,1.5 -2.5,2.5 -1.5,0.5 -7,3 -3,0.75"
         id="path1626" />
    </g>
    <g
       id="g1632"
       transform="matrix(0.26458333,0,0,0.26458333,103.59751,-554.57925)">
      <path
         fill="#000000"
         fill-rule="evenodd"
         d="m -563,2526.25 -9,0.13 -4,-1 -10,-4 -1.5,-0.38 -4.5,-4.5 v -3 l 1.5,-1.5 h 1 l 1.5,1.5 v 1 l 2.5,2.5 1.5,0.38 10,3.87 4.75,0.63 -0.75,-2.38 -7,-9 -2,-2 -0.5,-3.5 0.125,-6 3,-9 1.875,-4 0.25,-1.87 -15.25,0.87 -0.5,0.5 1,1 -1.75,11.5 -0.75,2 -3.5,5.5 -1,2 -5.5,5.5 -3.5,1.25 -6.5,0.75 -3.5,-3.5 -0.375,-2.5 v -6 l 3,-9 1.875,-4 3.5,-5.5 1.25,-2.25 2.25,-0.25 1,1 2,-2 1.5,-0.25 h 6 l 2,0.75 2,0.25 7,-1.25 10.5,-0.5 1,-1 2.5,2.5 v 3 l -2,2 -0.5,1.5 -3,7 -0.75,3 -0.75,8.5 3,3 2.5,3.5 8.5,10.5 1,1 -1.5,1.5 -1.5,0.25 m -44,-15.87 4.5,-2.38 1.5,-1.5 1.5,-2.5 2.5,-3.5 1.375,-2.5 0.875,-3 0.75,-9.5 -1.5,-1.5 -1.5,0.5 -5.5,3.5 -3.5,3.5 v 1 l -0.5,0.5 -1,-1 -0.5,0.5 -3.5,10.5 v 4 l 0.5,2.5 1.5,1.5 2.5,-0.62"
         id="path1630" />
    </g>
    <g
       id="g1636"
       transform="matrix(0.26458333,0,0,0.26458333,103.59751,-554.57925)">
      <path
         fill="#000000"
         fill-rule="evenodd"
         d="m -643.75,2515 -1.25,4.5 -2.5,2.5 h -2 l -2.5,-2.5 -1.25,-3.5 -1.375,-7 0.625,-12.5 -0.5,-0.5 -2,2 -6.5,1.5 h -3 l -2.5,-0.5 -1.5,1.5 -1.5,15.5 -1.5,8.5 -1.5,1.5 h -2 l -1.5,-1.5 -0.5,-1.5 -0.25,-1.75 1.5,-0.5 4,-21.75 -0.5,-5 1.25,-5 -0.5,-12.5 -1.5,-1.5 h -3 l -2.5,2.5 -0.25,2.25 -1.25,0.25 -1.5,-1.5 1.25,-4.25 4.75,-2.5 10,-2.25 h 4 l 6,1 5.5,1.5 2.5,2.5 2.25,9.25 1.25,0.25 0.5,-0.5 -1,-1 0.125,-6.25 1.375,-0.25 1.5,1.5 0.25,3.25 1.75,-0.12 3,-1 5,-1.13 4,0.13 3.75,1.62 1.625,3.75 v 4 l -0.875,2 -6.5,8.5 -2,2 v 2 l 2.5,2.5 h 1 l 2,2 2.5,0.63 6,2.87 1.5,0.5 2.5,2.5 -0.25,1.38 -5.75,-0.63 -2,-0.75 -4,-1.87 -2.5,-0.63 -2,-2 -4.25,-2.25 -1.75,-2.75 -1,-3 2,-3 7,-9 0.875,-2 0.625,-2.5 -1.5,-1.5 -6.5,0.63 -4.5,1.37 -2.5,2.5 0.5,20.5 -1.25,7 m -17.25,-20.62 2.5,-0.38 4.5,-4.5 1.375,-4.5 -0.125,-7 -0.25,-1.5 -1.5,-1.5 -8.5,-1.5 h -4 l -3.75,0.75 v 1.75 l 1.125,6 0.625,9.5 -1,1 2.5,2.5 6.5,-0.62 m 14,-9.38 v -1 h -1 v 1 h 1 m -1,30 v -0.5 l 1.25,-6.5 0.75,-16.5 -0.5,-0.5 -1.5,1.5 -1.375,6.5 0.375,15.5 1,0.5"
         id="path1634" />
    </g>
  </g>
</svg>
