<?xml version="1.0" encoding="UTF-8" standalone="no"?>
<!-- Created with Inkscape (http://www.inkscape.org/) -->

<svg
   width="52.387501mm"
   height="15.181791mm"
   viewBox="0 0 52.387501 15.181791"
   version="1.1"
   id="svg1128"
   inkscape:version="1.1.2 (0a00cf5339, 2022-02-04)"
   sodipodi:docname="stuff.svg"
   xmlns:inkscape="http://www.inkscape.org/namespaces/inkscape"
   xmlns:sodipodi="http://sodipodi.sourceforge.net/DTD/sodipodi-0.dtd"
   xmlns="http://www.w3.org/2000/svg"
   xmlns:svg="http://www.w3.org/2000/svg">
  <sodipodi:namedview
     id="namedview1130"
     pagecolor="#ffffff"
     bordercolor="#666666"
     borderopacity="1.0"
     inkscape:pageshadow="2"
     inkscape:pageopacity="0.0"
     inkscape:pagecheckerboard="0"
     inkscape:document-units="mm"
     showgrid="false"
     inkscape:zoom="0.77058782"
     inkscape:cx="201.14515"
     inkscape:cy="129.77106"
     inkscape:window-width="953"
     inkscape:window-height="1167"
     inkscape:window-x="0"
     inkscape:window-y="0"
     inkscape:window-maximized="1"
     inkscape:current-layer="layer1" />
  <defs
     id="defs1125" />
  <g
     inkscape:label="Layer 1"
     inkscape:groupmode="layer"
     id="layer1"
     transform="translate(-51.747295,-113.95593)">
    <g
       id="g1028"
       transform="matrix(0.26458333,0,0,0.26458333,223.72646,-205.39615)">
      <path
         fill="#000000"
         fill-rule="evenodd"
         d="m -468.25,1253.75 -2.25,0.25 -1.5,-1.5 1.75,-15.5 -0.875,-9 h -8.625 v -2.75 l 1.75,-0.5 5.5,-0.75 1.5,-1.5 0.125,-6.25 1.375,-0.25 1.5,1.5 0.125,5.5 13.875,0.88 1.75,0.37 v 2.5 l -1.75,0.38 -13.75,0.87 -0.125,24 -0.375,1.75"
         id="path1026" />
    </g>
    <g
       id="g1032"
       transform="matrix(0.26458333,0,0,0.26458333,223.72646,-205.39615)">
      <path
         fill="#000000"
         fill-rule="evenodd"
         d="m -460,1211.38 -32.75,2.37 v -2.5 l 6.75,-1.75 16,-2.25 6,0.5 10.5,-0.75 1.5,1.5 v 1 l -1.5,1.5 -6.5,0.38"
         id="path1030" />
    </g>
    <g
       id="g1036"
       transform="matrix(0.26458333,0,0,0.26458333,223.72646,-205.39615)">
      <path
         fill="#000000"
         fill-rule="evenodd"
         d="m -520.5,1253 -1.5,-0.25 v -20.5 l -4.75,0.5 -0.25,-1.25 2.5,-2.5 2.5,-0.25 v -11.62 l -11.75,0.75 -0.25,-1.38 1.5,-1.5 18.5,-3.37 13.5,0.37 1.5,1.5 v 1 l -1.5,1.5 -10.5,-0.75 -7.875,0.88 1,10.62 H -506 l 1.5,0.25 1.5,1.5 -2.5,2.5 H -518 v 19.5 l -2.5,2.5"
         id="path1034" />
    </g>
    <g
       id="g1040"
       transform="matrix(0.26458333,0,0,0.26458333,223.72646,-205.39615)">
      <path
         fill="#000000"
         fill-rule="evenodd"
         d="m -560,1255.38 -7,-0.13 -4.5,-2.25 -1.5,-1.5 -0.25,-1.5 -2.25,-10 -0.125,-5 1.375,-8 0.875,-3 0.75,-2 0.625,-2.5 1.5,-1.5 1.25,0.25 -0.25,3.75 -1,3 -0.75,4 v 11 l 1.875,8 0.625,1.75 1.75,0.75 2,1 2,0.13 4,-1.25 4,-1.88 1.5,-0.5 1.5,-1.5 3.375,-6.5 1.125,-3 3.625,-22.75 h 3.75 l -0.375,7.75 -3.5,20.5 -2,2 -1,3 -4.5,4.5 -1.5,0.5 -4,1.88 -3,1"
         id="path1038" />
    </g>
    <g
       id="g1048"
       transform="matrix(0.26458333,0,0,0.26458333,223.72646,-205.39615)">
      <path
         fill="#000000"
         fill-rule="evenodd"
         d="m -622,1264.38 -10,-0.13 -15,-5.87 -1.5,-0.38 -1.5,-1.5 0.25,-2.37 4.75,0.5 13,4.5 15.5,-0.13 2.5,-2.5 0.375,-1.5 0.125,-4 -2.5,-6.5 -2.5,-2.5 -5.5,-3.5 -11,-4.87 -3.5,-0.63 -2,-2 -1.25,-0.25 -0.5,-1.75 v -5 l 0.25,-1.5 6.5,-6.5 1.5,-0.5 10,-4 8,-2 3.5,-0.5 1,-1 1.5,1.5 v 1 l -1.5,1.5 -4.5,0.5 -4,1 -10,4 -2,1 -1.5,0.5 -5.5,5.5 v 1 l -1,1 1,1 0.25,1.25 2.75,0.75 5,2 10,5 5.5,3.5 2.5,2.5 0.5,1.5 1.875,4 1,3 0.625,5.5 -2,2 v 1 l -2.5,2.5 -3.5,1.25 -5,1.13"
         id="path1046" />
    </g>
    <path
       fill="#000000"
       fill-rule="evenodd"
       d="m 65.108754,126.39135 h -0.529167 l -0.661458,-0.66146 v -0.26459 l -0.264584,-0.26458 0.396875,-0.39687 h 0.264584 l 0.264583,0.26458 0.132292,-0.13229 0.529166,-6.94531 h -2.645833 l -0.926042,-0.33073 -0.396875,-0.39688 0.06615,-0.59531 0.463021,0.0661 0.529167,0.19844 1.322916,0.0661 1.322917,-0.33073 0.396875,-0.0662 0.529167,-0.52916 0.529166,0.52916 4.894792,-0.0661 0.396875,0.0661 0.132292,0.13229 -0.264584,0.26459 v 0.26458 l -0.396875,0.39688 -4.894791,0.29898 -0.396875,6.05102 -0.396875,1.98437 -0.396875,0.39688"
       id="path1042"
       style="stroke-width:0.264583" />
  </g>
</svg>
