<?xml version="1.0" encoding="UTF-8" standalone="no"?>
<!-- Created with Inkscape (http://www.inkscape.org/) -->

<svg
   width="60.47411mm"
   height="27.865608mm"
   viewBox="0 0 60.47411 27.865608"
   version="1.1"
   id="svg1229"
   inkscape:version="1.1.2 (0a00cf5339, 2022-02-04)"
   sodipodi:docname="stuff_highlight.svg"
   xmlns:inkscape="http://www.inkscape.org/namespaces/inkscape"
   xmlns:sodipodi="http://sodipodi.sourceforge.net/DTD/sodipodi-0.dtd"
   xmlns="http://www.w3.org/2000/svg"
   xmlns:svg="http://www.w3.org/2000/svg">
  <sodipodi:namedview
     id="namedview1231"
     pagecolor="#ffffff"
     bordercolor="#666666"
     borderopacity="1.0"
     inkscape:pageshadow="2"
     inkscape:pageopacity="0.0"
     inkscape:pagecheckerboard="0"
     inkscape:document-units="mm"
     showgrid="false"
     inkscape:zoom="0.77058782"
     inkscape:cx="-266.03068"
     inkscape:cy="-485.34377"
     inkscape:window-width="953"
     inkscape:window-height="1167"
     inkscape:window-x="0"
     inkscape:window-y="0"
     inkscape:window-maximized="1"
     inkscape:current-layer="layer1" />
  <defs
     id="defs1226" />
  <g
     inkscape:label="Layer 1"
     inkscape:groupmode="layer"
     id="layer1"
     transform="translate(-175.43115,-276.88685)">
    <g
       id="g796"
       transform="matrix(0.26458333,0,0,0.26458333,341.22798,-158.28154)">
      <path
         fill="none"
         stroke="#ffed75"
         stroke-width="30"
         stroke-linecap="butt"
         stroke-linejoin="bevel"
         opacity="0.500008"
         d="m -422.28,1714.35 0.236,-0.27 -10.186,0.12 -3.498,1.04 -1.099,-0.1 -4.104,1.04 -18.271,3.36 -2.134,0.62 -1.825,1.33 -3.373,1.57 -1.184,0.92 -5.807,2.73 -4.37,1.43 -6.924,0.95 -7.405,-0.11 -5.759,1.69 -1.728,0.03 -1.358,0.5 -4.782,-0.12 -5.144,0.5 -6.026,0.07 -0.84,0.37 -1.924,-0.05 -2.288,0.65 -0.919,-0.04 -3.182,0.88 -6.213,-0.11 -3.985,0.31 -2.009,0.65 -6.149,0.64 -17.917,0.1 -1.068,-0.38 -1.743,0.07 -7.615,-1.82 -6.282,-0.9 -7.644,-2.6 -9.648,-5.79 -4.624,-3.77 -2.571,-1.48 -3.303,-3.72 -0.388,-1.23 -1.617,-0.84 -1.41,-1.31 -1.279,-2.87 0.153,-5.75 1.295,-1.09 1.744,-3.7 2.906,-8.64 0.776,-0.81 1.119,-2.51 0.229,-1.25 1.784,-3.4 4.34,-4.38 10.107,-4.35 2.652,-0.67 5.077,-0.17 2.161,-0.53 5.316,-0.4 2.224,-0.56 9.418,-0.22 12.639,-2.54 1.242,0.08 3.616,-0.76 3.876,0.15 1.491,-0.34 2.755,0.02 3.63,-0.85 2.533,-0.06 18.203,-3.01 h 7.931 l 11.157,-1.23 20.977,-0.19 4.672,-0.96 3.26,0.12 2.968,-0.68 10.756,0.12 1.729,0.54 2.766,0.06 3.449,0.91 2.646,0.04 6.491,2.21 4.66,2.29 8.101,9 2.209,4.08 0.811,2.3 0.094,1.85 2.327,10.06 -0.053,3.94 -0.556,0.84 0.16,0.83 -0.363,0.39 -0.589,2.52 -1.616,3.1 -1.019,1.05 -2.686,0.85 -5.487,2.67 -5.361,4.16 -3.386,1.23 -12.429,3.09 -0.817,0.65 -1.301,0.39 -1.795,1.75 -2.154,1.29 -1.882,0.38 -5.945,2.39 -2.564,0.73 -6.149,-0.11 -3.458,-1.69 -1.857,-2.7 -2.182,-5.95 0.158,-2.62 2.481,-4.39 6.997,-6.4 6.102,-4.61 4.253,-1.89 1.75,-2 5.454,-4.02 1.893,-0.73 2.305,-1.95 1.466,-2.37 2.022,-1.72 7.25,-3.36 0.325,-1.72 -0.624,-1.06 -2.918,-1.52 -2.314,-0.7 -3.483,0.19 -11.44,2.19 -2.266,-0.1 -8.429,2.22 -5.038,2.96 -5.691,4.37 -10.995,5.2 -2.902,2.29 -1.569,1.67 -3.701,2.57 -9.223,8.96 -2.867,1.55 -1.239,1.31 -6.911,3.07 -5.5,-0.14 -4.489,-1.97 -4.358,-4.89 -1.53,-4.43 0.09,-4.04 1.866,-3.94 3.906,-2.97 6.242,-1.99 1.72,-0.19 4.094,0.06 4.317,1.4 2.506,1.18 2.154,4.55 -0.38,1.9 -2.557,3.94 -3.459,2.64 -6.618,3.67 -8.571,3.24 -2.153,1.12 -1.126,0.2 -3.899,-0.27 -3.635,-1.21 -3.405,-3.36 -0.853,-1.38 -0.838,-2.99 0.103,-1.24 -0.345,-1.28 0.246,-2.95 1.829,-3.65 6.772,-2.7 1.202,0.18 0.876,0.64 1.448,4.15 -1.368,4.55 -1.853,2.9 -5.179,3.2 -1.841,0.31 -2.625,-0.24 -2.934,-0.81 -1.718,-0.95 -1.36,-1.43 -2.397,-3.75 -0.329,-1.27 0.21,-2.97 2.322,-6.17 h 0.66 l 0.897,2.48 -0.128,0.72 -1.249,2.29 -2.712,3.76 -3.626,2.86 -5.355,2.48 -6.099,2.26 -1.407,0.21 -3.614,-0.28 -3.09,-0.95 -2.728,-1.35 -0.596,-1.84 1.204,3.08 0.831,3.43 -0.185,2.62 -1.27,2.4 -0.965,0.32 -1.51,-0.24 -2.936,-2.05 -1.95,-2.12 -3.639,-5.46 -0.299,-1.26 0.18,-4.53 1.303,-2.36 4.173,-2.15 3.474,0.15 2.472,1.26 1.454,2.56 -0.104,-0.29 -1.662,-0.65 -1.487,-1.53 -0.584,-2.84 0.266,-5.99 0.827,-2.25 1.126,-0.85 3.39,-1.08 1.252,0.1 1.28,0.6 1.76,1.67 7.06,2.94 9.212,2.82 9.492,4.38 7.566,2.07 2.121,0.34 3.86,-0.23 5.194,-1.09 5.793,-1.93 2.562,-1.27 1.775,-4.4 0.686,-4.25 2.379,-6.14 1.896,-1.49 1.17,-1.39 4.005,-1.93 2.661,-0.28 2.02,0.03 2.792,1.57 2.501,3 1.329,4.28 0.252,1.81 -0.093,4.48 -1.145,1.6 -6.729,4.37 -1.628,1.39 -1.805,0.78 -5.769,3.73 -5.348,2.84 -3.528,2.8 -2.305,1.41 -2.907,2.82 -1.124,0.4 -6.114,3.97 -6.492,2.43 -10.889,2.64 -2.421,0.84 -1.78,1.3 -2.604,0.63 -1.293,-0.11 -5.663,-1.95 -1.262,-0.71 -5.528,0.14 -2.979,-1.54 0.196,1.72 1.348,2.26 0.981,0.21"
         id="path794" />
    </g>
  </g>
</svg>
