<?xml version="1.0" encoding="UTF-8" standalone="no"?>
<!-- Created with Inkscape (http://www.inkscape.org/) -->

<svg
   width="56.788692mm"
   height="19.887283mm"
   viewBox="0 0 56.788692 19.887283"
   version="1.1"
   id="svg2454"
   inkscape:version="1.1.2 (0a00cf5339, 2022-02-04)"
   sodipodi:docname="stuff_highlight.svg"
   xmlns:inkscape="http://www.inkscape.org/namespaces/inkscape"
   xmlns:sodipodi="http://sodipodi.sourceforge.net/DTD/sodipodi-0.dtd"
   xmlns="http://www.w3.org/2000/svg"
   xmlns:svg="http://www.w3.org/2000/svg">
  <sodipodi:namedview
     id="namedview2456"
     pagecolor="#ffffff"
     bordercolor="#666666"
     borderopacity="1.0"
     inkscape:pageshadow="2"
     inkscape:pageopacity="0.0"
     inkscape:pagecheckerboard="0"
     inkscape:document-units="mm"
     showgrid="false"
     inkscape:zoom="0.77058782"
     inkscape:cx="382.82463"
     inkscape:cy="44.122161"
     inkscape:window-width="953"
     inkscape:window-height="1167"
     inkscape:window-x="0"
     inkscape:window-y="0"
     inkscape:window-maximized="1"
     inkscape:current-layer="layer1" />
  <defs
     id="defs2451" />
  <g
     inkscape:label="Layer 1"
     inkscape:groupmode="layer"
     id="layer1"
     transform="translate(-3.8807987,-136.66792)">
    <g
       id="g2221"
       transform="matrix(0.26458333,0,0,0.26458333,9.4996252,-229.94478)">
      <path
         fill="none"
         stroke="#ffed75"
         stroke-width="30"
         stroke-linecap="butt"
         stroke-linejoin="bevel"
         opacity="0.500008"
         d="m 175.614,1402.89 -8.017,0.26 -3.605,-0.89 -7.921,0.05 -1.062,0.68 -4.358,-0.1 -2.478,-0.16 -0.522,-0.46 -1.589,-0.25 h -34.295 l -1.628,0.34 -7.326,-0.05 -1.764,0.32 -13.1845,-0.04 -9.4199,-1.6 -19.0903,-0.37 -2.3573,0.62 -3.182,0.23 -1.7415,0.65 -1.3841,0.06 -1.4247,0.63 -15.8506,-0.08 -3.7358,0.28 -3.5295,1.1 -5.5514,2.6 -6.8588,0.66 -2.9067,1.44 -6.38155,2.26 -1.12091,2.2 -1.24219,1.43 -0.20654,-0.12 -0.43872,1.25 -1.590458,1.05 -0.296143,0.92 -1.236879,0.63 0.00971,0.56 -0.5213,0.13 -2.32264,4.7 -0.59143,4.97 0.04456,5.41 0.67407,1.06 -0.10181,0.64 1.02387,2.58 1.92657,3.52 4.2461,2.03 1.92468,-0.04 2.19617,0.61 30.18674,-0.33 3.5976,-1.93 3.6359,-0.96 0.8669,0.08 0.4449,-0.36 7.6709,0.08 3.8175,0.13 0.6094,0.36 5.2104,0.07 2.9386,0.93 2.1239,0.08 1.2414,0.63 9.8915,0.19 1.491,0.33 3.5987,-0.05 0.5208,0.36 5.6026,-0.08 0.5555,0.51 2.0419,-0.1 0.6743,0.37 8.1665,-0.08 0.931,0.35 3.792,-0.07 2.012,0.69 12.897,-0.53 2.996,-0.81 1.693,0.12 1.434,-0.54 17.488,-0.06 0.613,-0.35 2.849,0.07 3.387,-0.78 2.653,0.09 1.29,-0.46 4.566,-0.26 0.983,-0.5 1.048,-0.07 2.98,-1.6 1.314,-0.09 4.332,-2.15 0.535,-0.81 4.053,-1.85 0.127,-0.58 0.644,-0.45 2.067,-4.72 -0.023,-6.94 -0.326,-0.59 0.035,-1.62 -0.471,-1.54 0.034,-2.13 -0.812,-1.83 0.111,-0.9 -2.783,-5.32 -4.228,-2 -4.85,-0.53 -5.851,0.04 -4.881,2.15 -0.214,0.49 -1.011,0.41 -2.132,4.1 0.149,0.67 -0.485,0.91 0.041,5.98 -2.568,1.1 -0.854,0.95 -1.814,-0.34 -7.222,0.06 -1.144,-0.34 -3.206,-0.08 -5.504,-0.87 -1.739,-0.64 -1.962,-0.03 -2.394,-0.49 -11.872,-0.09 -0.585,0.37 -2.882,0.18 -4.339,1.22 -0.88,-0.05 -1.459,0.64 -2.772,-0.13 -0.5418,0.37 -2.011,-0.05 -0.7659,0.35 -4.5987,-0.09 -0.8978,0.38 -2.1702,-0.09 -0.8774,0.35 -4.7791,-0.08 -0.8733,0.38 -2.5714,-0.08 -4.3942,1.27 -13.8357,-0.34 -14.7497,0.05 -0.61,0.37 -2.214,0.04 -2.0465,0.66 -1.7375,0.07 -1.7349,0.64 -5.8653,0.05 -5.542,0.59 -10.6534,-0.03 -2.2057,-1 -1.5537,-1.81 -3.18507,-6.47 0.00671,-2.83 1.85706,-3.73 0.64209,-0.56 1.68791,-1.07 10.261,-4.82 1.0135,-1.97 -0.1054,-0.72 -0.4523,-0.1 -0.2472,-0.53 -1.2787,-0.46 -3.4301,0.02 -3.7226,1.17 -3.76896,1.8 -2.33752,1.18 -0.3772,0.51 -10.26355,4.8 -0.90039,0.77 -1.38934,2.87 -0.08698,3.02 -0.31781,1.05 -0.11816,12.23 0.51526,0.98 -0.07959,0.76 2.42169,4.38 0.0711,0.89 1.32807,2.43 -0.03351,0.92 1.642761,3.08 3.532109,1.85 7.76322,-0.05 9.0405,-0.85 1.6008,-2.06 0.2588,-0.95"
         id="path2219" />
    </g>
  </g>
</svg>
