<?xml version="1.0" encoding="UTF-8" standalone="no"?>
<!-- Created with Inkscape (http://www.inkscape.org/) -->

<svg
   width="50.270832mm"
   height="14.155209mm"
   viewBox="0 0 50.270832 14.155209"
   version="1.1"
   id="svg2286"
   inkscape:version="1.1.2 (0a00cf5339, 2022-02-04)"
   sodipodi:docname="theses_header.svg"
   xmlns:inkscape="http://www.inkscape.org/namespaces/inkscape"
   xmlns:sodipodi="http://sodipodi.sourceforge.net/DTD/sodipodi-0.dtd"
   xmlns="http://www.w3.org/2000/svg"
   xmlns:svg="http://www.w3.org/2000/svg">
  <sodipodi:namedview
     id="namedview2288"
     pagecolor="#ffffff"
     bordercolor="#666666"
     borderopacity="1.0"
     inkscape:pageshadow="2"
     inkscape:pageopacity="0.0"
     inkscape:pagecheckerboard="0"
     inkscape:document-units="mm"
     showgrid="false"
     inkscape:zoom="0.77058782"
     inkscape:cx="78.511492"
     inkscape:cy="-20.76337"
     inkscape:window-width="953"
     inkscape:window-height="1167"
     inkscape:window-x="0"
     inkscape:window-y="0"
     inkscape:window-maximized="1"
     inkscape:current-layer="layer1" />
  <defs
     id="defs2283" />
  <g
     inkscape:label="Layer 1"
     inkscape:groupmode="layer"
     id="layer1"
     transform="translate(-14.006779,-153.95476)">
    <g
       id="g1640"
       transform="matrix(0.26458333,0,0,0.26458333,200.80261,-420.05877)">
      <path
         fill="#000000"
         fill-rule="evenodd"
         d="m -516.25,2222.75 -188.25,0.25 -1.5,-1.5 0.25,-1.5 188.25,-1 1.5,1.5 -0.25,2.25"
         id="path1638" />
    </g>
    <g
       id="g1644"
       transform="matrix(0.26458333,0,0,0.26458333,200.80261,-420.05877)">
      <path
         fill="#000000"
         fill-rule="evenodd"
         d="m -573,2191.5 -2.5,0.5 -1.5,-1.5 1.5,-1.5 6.5,-1.5 3,-1 3.5,-0.5 0.5,0.5 -1,1 -0.25,1.25 -9.75,2.75"
         id="path1642" />
    </g>
    <g
       id="g1648"
       transform="matrix(0.26458333,0,0,0.26458333,200.80261,-420.05877)">
      <path
         fill="#000000"
         fill-rule="evenodd"
         d="m -531,2210.38 -17.5,-0.38 -1.5,-1.5 0.25,-1.25 21.75,-2.12 3.5,-1.13 0.5,-0.5 -1,-1 v -1 l -3.5,-3.5 -2,-1 -4,-3 -3,-2 -2,-2 h -2 l -3.5,-3.5 -1,-6 1.5,-1.5 h 2 l 2,-2 2.5,-0.62 2,-0.75 2.5,-0.63 0.5,0.5 -1,1 -0.25,1.25 -1.75,0.75 -5.75,3.75 -0.25,2.25 1.5,1.5 1.5,0.5 2.5,1.5 8,6 2,1 4.5,4.5 v 1 l 2,2 v 3 l -3.5,3.5 -7.5,1.38"
         id="path1646" />
    </g>
    <g
       id="g1652"
       transform="matrix(0.26458333,0,0,0.26458333,200.80261,-420.05877)">
      <path
         fill="#000000"
         fill-rule="evenodd"
         d="m -575.5,2213 -2.5,-1.5 -1.5,-0.5 -3.5,-3.5 -0.5,-3.5 v -5 l 1.125,-7 3,-9 2.625,-6 14.75,0.88 1.75,0.37 0.25,1.25 -1.5,1.5 -1,-1 h -12.25 l -2.75,8 -0.75,4 -0.75,13.5 1.5,1.5 1.5,0.25 5,0.25 4,-1 3,-1.12 2.5,-1.38 2.25,-0.75 0.25,3.25 -3.5,3.5 -6.5,1.5 -5.5,0.5 -1,1"
         id="path1650" />
    </g>
    <g
       id="g1656"
       transform="matrix(0.26458333,0,0,0.26458333,200.80261,-420.05877)">
      <path
         fill="#000000"
         fill-rule="evenodd"
         d="m -591,2207.25 -11,0.13 -7.5,-1.38 -1.5,-1.5 v -2 l 1.5,-1.5 9.5,2.38 h 7 l 2.75,-0.63 0.25,-2.25 -1.5,-1.5 -8.5,-4.5 -1.5,-0.5 -6.5,-6.5 v -4 l 5.5,-5.5 1.5,-0.37 3,-1.13 2.5,-0.5 1.5,1.5 -1.5,1.5 -4,1 -4.5,4.5 v 2 l 5.5,5.5 1.5,0.38 3,1.25 5.5,3.37 1.5,1.5 1,6 -2.5,2.5 -2.5,0.25"
         id="path1654" />
    </g>
    <g
       id="g1660"
       transform="matrix(0.26458333,0,0,0.26458333,200.80261,-420.05877)">
      <path
         fill="#000000"
         fill-rule="evenodd"
         d="m -630,2208.38 -5.5,0.62 -2.5,-2.5 -0.25,-16.5 1.25,-9.5 2,-2 v -2 l 1.5,-1.5 h 16 l 1.5,1.5 -1.5,1.5 h -14.25 l -1.625,5 -0.625,4.5 0.5,0.5 1,-1 11,-2 1.5,1.5 -1.5,1.5 -6.5,1.5 -4.5,0.5 -1,1 -1,-1 -0.5,0.5 v 12 l 1.5,1.5 4.5,-0.5 9.5,-2.5 1,-1 1,1 1.25,0.25 0.25,2.25 -1.5,1.5 -12.5,3.38"
         id="path1658" />
    </g>
    <g
       id="g1664"
       transform="matrix(0.26458333,0,0,0.26458333,200.80261,-420.05877)">
      <path
         fill="#000000"
         fill-rule="evenodd"
         d="m -643.5,2212 h -1 l -1.5,-1.5 v -10.37 h -7.875 l 0.875,9.37 1,1 -1.5,1.5 h -1 l -1.5,-1.5 -0.375,-1.5 -0.625,-3.5 -1,-1 1,-1 -1.875,-22.5 0.375,-2 0.5,-1.5 0.5,-0.5 1.5,1.5 1.875,16.5 0.375,1.88 h 7.75 v -17.63 l 1.5,-0.25 1.5,1.5 v 16.25 l 2.75,0.5 0.25,2.25 -2,2 v 9 l -1.5,1.5"
         id="path1662" />
    </g>
    <g
       id="g1668"
       transform="matrix(0.26458333,0,0,0.26458333,200.80261,-420.05877)">
      <path
         fill="#000000"
         fill-rule="evenodd"
         d="m -675.5,2214 h -1 l -1.5,-1.5 -2.125,-33.25 -2.875,0.38 -9,3.87 -2,1 -1.5,0.5 -1.5,-1.5 0.25,-1.25 1.75,-0.75 11,-5.87 5,-2 8,-2.25 4,-1.88 h 2 l 1.5,0.5 0.5,0.5 -4.5,4.5 -4.5,1.38 -4.75,0.75 2.75,35.37 -1.5,1.5"
         id="path1666" />
    </g>
  </g>
</svg>
