<?xml version="1.0" encoding="UTF-8" standalone="no"?>
<svg
   viewBox="0 0 128 128"
   version="1.1"
   id="svg14"
   width="128"
   height="128"
   xmlns="http://www.w3.org/2000/svg"
   xmlns:svg="http://www.w3.org/2000/svg">
  <defs
     id="defs4" />
  <path
     d="m 35.535303,52.407606 c 0,0 6.115441,-8.775238 5.675632,-12.15758 -0.43981,-3.392812 -1.623105,-4.125828 -5.015918,-5.309123 -3.392813,-1.183296 -5.382425,-3.026306 -5.382425,-3.026306 0,0 -2.460837,-11.550224 -2.209517,-12.974367 0.293206,-1.696407 6.408646,-13.1209707 20.932817,-13.1209707 14.000589,0 19.749522,11.7491847 19.016507,20.7862137 -0.659714,8.178355 -3.686019,10.471645 -5.822235,17.246799 -2.136215,6.785626 -3.172908,10.838152 -3.172908,10.838152 L 46.949396,57.266449 36.40445,54.98363 Z"
     fill="url(#SVGID_1_)"
     id="path4"
     style="fill:#ffc710;fill-opacity:1;stroke-width:1.04716" />
  <path
     d="m 49.947858,96.035926 c 0,0 0.829867,8.453564 -0.02213,9.482604 -0.863061,1.02903 -13.764721,4.01655 -15.225286,5.11198 -1.582279,1.18394 -0.907321,3.83951 2.456405,6.90449 3.363726,3.06497 6.185273,3.59609 8.121628,2.79941 2.279367,-0.92945 6.229532,-3.95016 7.999914,-5.30008 1.416306,-1.08436 3.540765,-3.38585 3.828452,-5.23369 0.298752,-1.84784 -0.619634,-12.702485 -0.619634,-12.702485 z"
     fill="#ff5d10"
     id="path5"
     style="stroke-width:1.10649" />
  <path
     d="m 71.266076,96.81963 c 0,0 1.261922,8.92 0.642433,10 -1.617555,2.82 -10.864006,9.16 -11.472024,11.26 -0.481825,1.69 4.359369,5.07 9.200563,5.16 6.470222,0.13 10.519846,-2.1 10.978727,-3.33 0.642433,-1.74 -1.778164,-11.97 -2.09938,-12.53 -0.321217,-0.56 0.160608,-15.06 0.160608,-15.06 z"
     fill="#ff5d10"
     id="path6"
     style="stroke-width:1.07108" />
  <path
     d="m 97.948692,54.821361 c 0,0 4.533768,-1.031658 4.552658,-4.609539 0.009,-3.577879 -1.64349,-2.019416 -1.66238,-4.620513 -0.0189,-2.601096 4.00483,-3.215701 6.64953,-1.031658 2.08743,1.723089 6.85733,7.331361 6.59286,18.975932 -0.35892,15.815106 -7.48072,27.382853 -18.692359,34.538612 -9.143106,5.827775 -22.631075,5.136345 -22.631075,5.136345 z"
     fill="#5E6367"
     id="path7"
     style="fill:#ffc710;fill-opacity:1;stroke-width:1.01815" />
  <path
     d="m 85.679174,56.138372 c 2.219659,-0.307303 11.957822,-3.885182 15.424266,-2.853524 4.1843,1.240186 8.35914,4.664414 7.50906,15.529754 -1.09566,14.102992 -9.719272,22.696489 -13.431297,25.056133 -6.640086,4.214435 -13.025147,4.313211 -13.025147,4.313211 0,0 1.312905,-41.738271 3.523118,-42.045574 z"
     fill="#B0B0B1"
     id="path8"
     style="fill:#ffe010;fill-opacity:1;stroke-width:1.01815" />
  <path
     d="m 14.806259,27.241394 c 0,1.256597 4.915227,4.942616 9.553725,5.822234 4.638498,0.879618 7.511204,-0.293206 7.511204,-0.293206 0,0 -0.790653,-3.172908 -0.790653,-5.529028 0,-2.35612 0.764298,-8.272599 -0.415093,-9.654856 -1.067381,-1.256598 -1.950277,1.329898 -2.595977,2.062913 -0.652289,0.733016 -2.503735,2.79593 -5.38303,2.953004 -2.879295,0.157075 -5.38303,-0.586412 -6.397701,0.293206 -1.014671,0.879618 -1.482475,3.015834 -1.482475,4.345733 z"
     fill="#FFBF18"
     id="path9"
     style="fill:#ff5d10;fill-opacity:1;stroke-width:0.830631" />
  <path
     d="m 52.62098,22.356493 c -0.567743,2.365596 -2.176348,4.217518 -5.32597,3.717363 -2.946856,-0.473118 -4.379729,-3.514598 -3.514598,-6.474971 0.675884,-2.338561 2.419666,-3.92013 5.366522,-3.419975 3.379422,0.567743 4.014752,3.893094 3.474046,6.177583 z"
     fill="#2d2b33"
     id="path10"
     style="stroke-width:1.35176" />
  <path
     d="m 51.326543,28.23905 c 2.586496,-0.816788 4.502807,-0.82726 4.230545,-2.586496 -0.31415,-2.021028 -3.675548,-1.445087 -5.811763,-0.31415 -2.272347,1.20424 -5.225351,3.256682 -3.916395,4.921673 1.392729,1.769708 4.01064,-1.549803 5.497613,-2.021027 z"
     fill="#73DF86"
     id="path11"
     style="fill:#ffdb65;fill-opacity:1;stroke-width:1.04716" />
  <path
     d="m 36.257094,51.227064 c 0,0 1.19624,10.412513 11.98624,8.565003 7.71,-1.324631 13.42,-5.774923 13.42,-5.774923 l 0.131903,-7.141095 c 0,0 -5.161903,3.318259 -11.301903,3.213683 -6.38,-0.104576 -11.333363,-3.592191 -11.333363,-3.592191 z"
     fill="#ffffff"
     id="path12"
     style="fill:#ffffff;fill-opacity:1;stroke-width:1.07794" />
  <path
     d="M 29.347067,70.866945 C 28.638665,93.311006 43.203405,103.97879 66.316193,104.43975 91.932,104.95558 101.84018,87.494207 103.37033,76.530092 104.96659,65.061121 98.581531,62.624651 98.581531,62.624651 c 0,0 6.385059,-3.094976 3.523119,-10.426337 -1.3318,-0.307302 -7.886873,1.72309 -20.345299,0.230477 -12.373417,-1.481637 -20.855347,1.031659 -20.855347,1.031659 0,0 -3.098077,3.918107 -11.967267,3.402279 -10.626027,-0.614606 -12.675669,-5.454622 -12.675669,-5.454622 0,0 -6.470069,5.498521 -6.914001,19.458838 z"
     fill="#84574E"
     id="path13"
     style="fill:#ffc710;fill-opacity:1;stroke-width:1.01815" />
  <path
     d="m 53.636408,79.36259 c 1.49605,6.023209 6.837208,9.660007 14.776768,9.233046 7.204659,-0.38884 12.440833,-6.229066 13.300404,-11.375479 0.938312,-5.596247 -1.017051,-7.731055 -1.017051,-7.731055 0,0 4.160067,-1.753592 4.160067,-5.154038 -2.342498,-1.646852 -9.789937,-2.790499 -18.044455,-3.148842 -5.354282,-0.228729 -8.372627,2.073814 -8.372627,2.073814 0,0 -7.578671,4.940556 -4.803106,16.102554 z"
     fill="#B79277"
     id="path14"
     style="fill:#ffe010;fill-opacity:1;stroke-width:0.707301" />
</svg>
